<?xml version="1.0" encoding="UTF-8"?>
<svg width="600px" height="600px" viewBox="0 0 600 600" version="1.1" xmlns="http://www.w3.org/2000/svg" xmlns:xlink="http://www.w3.org/1999/xlink">
    <title>assets/icon</title>
    <g id="/assets/icon" stroke="none" stroke-width="1" fill="none" fill-rule="evenodd">
        <g id="Vaillant-Icon-Logo-Vector" transform="translate(68, 5)">
            <g id="watermark_1_" transform="translate(107, 512)" fill="#FFFFFF" fill-rule="nonzero" opacity="0.61">
                <g id="Group">
                    <g id="Group" transform="translate(0.185, 58.5951)">
                        <g transform="translate(59.5924, 0)">
                            <g transform="translate(0, 1.0094)">
                                <polygon id="Path" points="18.3529228 0 11.0831313 16.8175799 7.24495323 16.8175799 0 0 4.19898769 0 9.3078432 12.0125571 14.4899065 0"></polygon>
                                <path d="M31.0884577,11.2191392 L21.3243734,11.2191392 C21.6838757,12.8295419 23.051292,13.8141133 25.0187504,13.8141133 C26.3861667,13.8141133 27.3692423,13.4056209 28.2568863,12.5650693 L30.2478758,14.7266749 C29.0490988,16.0961719 27.2489724,16.8175799 24.9220116,16.8175799 C20.4602604,16.8175799 17.5567885,14.0065761 17.5567885,10.1625578 C17.5567885,6.2949727 20.5073225,3.50753574 24.4422394,3.50753574 C28.232048,3.50753574 31.1590776,6.05406692 31.1590776,10.2110008 C31.1603582,10.4990404 31.1132961,10.9075328 31.0884577,11.2191392 M21.2773112,9.03265737 L27.6346204,9.03265737 C27.3705496,7.39868775 26.1469342,6.34210644 24.468385,6.34210644 C22.7636901,6.34210644 21.5413821,7.37512088 21.2773112,9.03265737" id="Shape"></path>
                                <path d="M32.6937992,10.1625578 C32.6937992,6.27009656 35.6927027,3.50753574 39.8903831,3.50753574 C42.6016846,3.50753574 44.736475,4.68456995 45.6724885,6.79904185 L42.7703239,8.36100159 C42.0748502,7.13552438 41.0434052,6.58301221 39.866852,6.58301221 C37.971294,6.58301221 36.4849151,7.90406618 36.4849151,10.1625578 C36.4849151,12.4210495 37.9726013,13.7421035 39.866852,13.7421035 C41.0420979,13.7421035 42.0735429,13.2131582 42.7703239,11.9641141 L45.6724885,13.5496407 C44.736475,15.6156696 42.6016846,16.8162711 39.8903831,16.8162711 C35.6927027,16.8175799 32.6937992,14.0550191 32.6937992,10.1625578" id="Path"></path>
                                <path d="M56.3464407,16.0005951 C55.5790665,16.5531073 54.4508827,16.8175799 53.2991679,16.8175799 C50.2532023,16.8175799 48.4779142,15.2556202 48.4779142,12.1801437 L48.4779142,6.87105173 L46.4869247,6.87105173 L46.4869247,3.98803803 L48.4779142,3.98803803 L48.4779142,0.840551679 L52.2206607,0.840551679 L52.2206607,3.98803803 L55.4352656,3.98803803 L55.4352656,6.87105173 L52.2206607,6.87105173 L52.2206607,12.13301 C52.2206607,13.2380343 52.8193956,13.8389895 53.8273095,13.8389895 C54.3789822,13.8389895 54.930655,13.6714029 55.3385268,13.3584872 L56.3464407,16.0005951 Z" id="Path"></path>
                            </g>
                            <path d="M82.02929,4.70813682 L82.02929,8.16853882 C81.7181571,8.14497195 81.4776173,8.12009581 81.1900154,8.12009581 C79.1271254,8.12009581 77.7597092,9.24868701 77.7597092,11.7245176 L77.7597092,17.8270275 L74.0169627,17.8270275 L74.0169627,4.90059959 L77.5910699,4.90059959 L77.5910699,6.60657908 C78.502245,5.357535 80.0383005,4.70813682 82.02929,4.70813682" id="Path"></path>
                            <path d="M83.1077972,15.8801422 L84.426844,12.9486855 C85.8426297,13.9817 87.9525818,14.7017988 89.9684097,14.7017988 C92.2718394,14.7017988 93.2065456,13.933257 93.2065456,12.9002425 C93.2065456,9.75275616 83.4424612,11.9156711 83.4424612,5.66783212 C83.4424612,2.80838528 85.7458909,0.430750004 90.5187751,0.430750004 C92.6300345,0.430750004 94.7896633,0.934819157 96.3479426,1.92069986 L95.1478584,4.87572345 C93.5882717,3.98672876 91.9816229,3.55466948 90.4939368,3.55466948 C88.1918143,3.55466948 87.3041703,4.41878803 87.3041703,5.47667862 C87.3041703,8.57572196 97.0669474,6.43768319 97.0669474,12.612203 C97.0669474,15.4232068 94.7399866,17.8257199 89.942264,17.8257199 C87.2819465,17.8270275 84.5954833,17.0336096 83.1077972,15.8801422" id="Path"></path>
                            <path d="M112.036626,12.2285867 L102.272542,12.2285867 C102.632044,13.8389895 103.99946,14.8235609 105.966919,14.8235609 C107.334335,14.8235609 108.317411,14.4150685 109.205055,13.5745168 L111.196044,15.7361225 C109.99596,17.1056194 108.197141,17.8270275 105.87018,17.8270275 C101.408429,17.8270275 98.5049569,15.0160237 98.5049569,11.1720054 C98.5049569,7.30442028 101.455491,4.51698332 105.390408,4.51698332 C109.181524,4.51698332 112.107321,7.0635145 112.107321,11.2204484 C112.109834,11.5084879 112.061464,11.9169803 112.036626,12.2285867 M102.22548,10.0421049 L108.582789,10.0421049 C108.318718,8.40813533 107.095103,7.35155401 105.416553,7.35155401 C103.713166,7.35155401 102.48955,8.38456846 102.22548,10.0421049" id="Shape"></path>
                            <path d="M127.173637,12.2285867 L117.409552,12.2285867 C117.769055,13.8389895 119.136471,14.8235609 121.10393,14.8235609 C122.471346,14.8235609 123.454421,14.4150685 124.342065,13.5745168 L126.333055,15.7361225 C125.132971,17.1056194 123.334152,17.8270275 121.007191,17.8270275 C116.545439,17.8270275 113.641968,15.0160237 113.641968,11.1720054 C113.641968,7.30442028 116.592502,4.51698332 120.527418,4.51698332 C124.317227,4.51698332 127.244256,7.0635145 127.244256,11.2204484 C127.245537,11.5084879 127.197168,11.9169803 127.173637,12.2285867 M117.361183,10.0421049 L123.718492,10.0421049 C123.454421,8.40813533 122.230806,7.35155401 120.552257,7.35155401 C118.848869,7.35155401 117.625254,8.38456846 117.361183,10.0421049" id="Shape"></path>
                            <polygon id="Path" points="135.280088 12.757532 133.479962 14.5355214 133.479962 17.8270275 129.738523 17.8270275 129.738523 0 133.479962 0 133.479962 10.090548 138.950935 4.90059959 143.412686 4.90059959 138.038452 10.3785875 143.892458 17.8270275 139.357499 17.8270275"></polygon>
                            <path d="M74.3516267,19.5840686 L74.3516267,19.5840686 L70.612802,15.8395548 C70.0441346,16.5046643 69.3669629,17.074197 68.6074324,17.5206582 C68.4871626,17.6109979 68.3642781,17.698719 68.2374718,17.781203 L72.1946125,21.7443649 C72.7907328,22.3413923 73.7568137,22.3413923 74.3516267,21.7443649 C74.947747,21.1486468 74.947747,20.1810959 74.3516267,19.5840686" id="Path"></path>
                            <path d="M65.701346,3.72225611 C65.9902552,3.49575231 66.3484503,3.35435109 66.7432492,3.35435109 C66.7981551,3.35435109 66.8517536,3.35696963 66.9053521,3.36220672 C66.6255939,3.15796051 66.2804716,3.03619835 65.9065892,3.03619835 C65.390213,3.03619835 64.9339718,3.27186705 64.6241462,3.63584426 C64.5574748,3.63584426 64.493418,3.64369988 64.4267467,3.64631842 C64.4777307,3.54550459 64.5104127,3.4342166 64.5104127,3.31245444 C64.5104127,3.00608513 64.3234715,2.74423103 64.0580933,2.63294303 C64.1718268,2.79791112 64.2384982,2.99822951 64.2384982,3.21556842 C64.2384982,3.37529942 64.1979725,3.52586553 64.1326084,3.66202967 C60.4578405,3.92519304 57.5569832,6.98626754 57.5569832,10.7320905 C57.5569832,14.6507372 60.7284478,17.8283368 64.6424481,17.8283368 C68.5551412,17.8283368 71.7279135,14.6520465 71.7279135,10.7320905 C71.7292203,7.17218395 69.112043,4.23418089 65.701346,3.72225611 M63.085476,5.5709461 C63.6541434,5.5709461 64.1888215,5.7175844 64.6529064,5.97551069 C65.1418296,5.65473941 65.7248771,5.468823 66.3510648,5.468823 C67.2805419,5.468823 68.1132801,5.8773154 68.6832548,6.52409504 C68.1145874,6.02788151 67.3707443,5.72544002 66.556308,5.72544002 C65.9693387,5.72544002 65.4189732,5.88255248 64.9431228,6.15619002 C64.8398476,6.21641647 64.7391869,6.28187999 64.6437554,6.3525806 C64.5587821,6.28973562 64.469887,6.23081844 64.37707,6.17713835 C63.8946832,5.89040811 63.3312449,5.72674929 62.7298955,5.72674929 C62.3377111,5.72674929 61.9612141,5.7974499 61.6134772,5.92575841 C62.0566456,5.69925461 62.5560271,5.5709461 63.085476,5.5709461 M68.0387651,11.3867258 C68.1891024,11.7860533 68.275383,12.2168033 68.275383,12.6685016 C68.275383,14.6769226 66.649125,16.3043459 64.6437554,16.3043459 C62.6383858,16.3043459 61.0134351,14.6769226 61.0134351,12.6685016 C61.0134351,12.2168033 61.0997157,11.7860533 61.250053,11.3867258 C60.4395386,10.8865844 59.8970168,9.99366194 59.8970168,8.96981239 C59.8970168,7.40261557 61.166387,6.13131388 62.7312028,6.13131388 C63.4698167,6.13131388 64.1404521,6.41673486 64.6437554,6.88021662 C65.148366,6.41673486 65.8190013,6.13131388 66.5576153,6.13131388 C68.1224311,6.13131388 69.3918012,7.40261557 69.3918012,8.96981239 C69.3918012,9.99366194 68.8492795,10.8865844 68.0387651,11.3867258" id="Shape"></path>
                            <path d="M67.9001932,8.71974172 C67.9001932,9.37044917 67.3720516,9.89939446 66.7223327,9.89939446 C66.0726139,9.89939446 65.5444722,9.37044917 65.5444722,8.71974172 C65.5444722,8.06903426 66.0726139,7.54008897 66.7223327,7.54008897 C66.8543682,7.54008897 66.9798672,7.56234657 67.0975225,7.60162469 C67.058304,7.68279946 67.0386948,7.7744484 67.0386948,7.86871587 C67.0386948,8.22614673 67.327604,8.51549551 67.6844918,8.51549551 C67.7498559,8.51549551 67.8139127,8.50502135 67.8753549,8.48669156 C67.8923495,8.56262925 67.9001932,8.63987621 67.9001932,8.71974172" id="Path"></path>
                            <path d="M63.4410565,8.71974172 C63.4410565,9.21202744 63.0423357,9.61135495 62.550798,9.61135495 C62.0592602,9.61135495 61.6605394,9.21202744 61.6605394,8.71974172 C61.6605394,8.227456 62.0592602,7.82812849 62.550798,7.82812849 C62.6501513,7.82812849 62.7455829,7.845149 62.834478,7.87395296 C62.8044105,7.93548867 62.7900304,8.00488001 62.7900304,8.07688989 C62.7900304,8.34659962 63.0083464,8.56655706 63.2789537,8.56655706 C63.3286304,8.56655706 63.3769998,8.55870144 63.4227546,8.54429947 C63.4345201,8.6005981 63.4410565,8.65951527 63.4410565,8.71974172" id="Path"></path>
                            <g transform="translate(56.451, 1.6353)">
                                <g transform="translate(0, 0.5263)">
                                    <rect id="Rectangle" x="0" y="7.56496511" width="1" height="1"></rect>
                                    <rect id="Rectangle" x="15.5814864" y="7.56496511" width="1" height="1"></rect>
                                    <path d="M16.0756387,7.89490128 L15.8926194,7.89490128 C15.8926194,3.64239061 12.438782,0.183297874 8.19273221,0.183297874 C3.94668239,0.183297874 0.492845068,3.64239061 0.492845068,7.89490128 L0.30982568,7.89490128 C0.30982568,5.78566646 1.12949108,3.80343088 2.61848454,2.31217175 C4.107478,0.820912621 6.08670196,0 8.19273221,0 C10.2987625,0 12.2779864,0.820912621 13.7669799,2.31217175 C15.2559733,3.80343088 16.0756387,5.78566646 16.0756387,7.89490128" id="Path"></path>
                                </g>
                                <rect id="Rectangle" x="7.79139684" y="0.214720367" width="1" height="1"></rect>
                                <rect id="Rectangle" x="2.66946851" y="0.526326752" width="11.0465274" height="1"></rect>
                                <path d="M2.96229954,0.654635264 C2.96229954,0.796036481 2.84725878,0.911252288 2.70607239,0.911252288 C2.56488601,0.911252288 2.44984525,0.796036481 2.44984525,0.654635264 C2.44984525,0.513234047 2.56488601,0.398018241 2.70607239,0.398018241 C2.84725878,0.398018241 2.96229954,0.513234047 2.96229954,0.654635264" id="Path"></path>
                                <path d="M13.9722231,0.654635264 C13.9722231,0.796036481 13.8571823,0.911252288 13.7159959,0.911252288 C13.5748095,0.911252288 13.4597688,0.796036481 13.4597688,0.654635264 C13.4597688,0.513234047 13.5748095,0.398018241 13.7159959,0.398018241 C13.8584896,0.398018241 13.9722231,0.513234047 13.9722231,0.654635264" id="Path"></path>
                            </g>
                        </g>
                        <path d="M209.446081,17.030991 C209.446081,19.0721438 206.355668,19.0721438 206.355668,17.030991 C206.356975,14.9911475 209.446081,14.9911475 209.446081,17.030991 Z" id="Path"></path>
                        <g transform="translate(0, 7.4916)">
                            <g transform="translate(0, 0.5577)" id="Path">
                                <polygon points="9.93272368 0 12.2492262 7.97083897 14.6742331 0 17.5698613 0 13.8794061 10.6574621 10.8334405 10.6574621 9.73924604 7.52044991 8.79538891 3.97494532 7.85153178 7.52044991 6.75733729 10.6574621 3.71137175 10.6574621 0 0 2.91654469 0 5.34155159 7.97083897 7.63713764 0"></polygon>
                                <polygon points="29.5079546 0 31.8244571 7.97083897 34.249464 0 37.1450922 0 33.454637 10.6574621 30.4086714 10.6574621 29.314477 7.52044991 28.3706198 3.97494532 27.4267627 7.52044991 26.3325682 10.6574621 23.2866027 10.6574621 19.5752309 0 22.4917756 0 24.9167825 7.97083897 27.2123685 0"></polygon>
                                <polygon points="49.0831855 0 51.3996881 7.97083897 53.824695 0 56.7203231 0 53.0298679 10.6574621 49.9839024 10.6574621 48.8897079 7.52044991 47.9458507 3.97494532 47.0019936 7.52044991 45.9077991 10.6574621 42.8618336 10.6574621 39.1504618 0 42.0670065 0 44.4920134 7.97083897 46.7875995 0"></polygon>
                            </g>
                            <path d="M61.1376268,9.6846741 C61.1376268,11.7258268 58.0472137,11.7258268 58.0472137,9.6846741 C58.048521,7.64483061 61.1376268,7.64483061 61.1376268,9.6846741 Z" id="Path"></path>
                            <path d="M220.36711,9.53934507 C219.144802,10.7425647 217.858437,11.2152113 216.292314,11.2152113 C213.225432,11.2152113 210.671004,9.36783063 210.671004,5.60891494 C210.671004,1.84999926 213.224124,0 216.292314,0 C217.79438,0 218.952631,0.430750004 220.110882,1.56981536 L218.458479,3.30983589 C217.836213,2.74946811 217.064917,2.47190276 216.336761,2.47190276 C214.577161,2.47190276 213.290796,3.76153423 213.290796,5.60891494 C213.290796,7.6278101 214.663441,8.70141193 216.293621,8.70141193 C217.130281,8.70141193 217.966941,8.46574323 218.610123,7.82158213 L220.36711,9.53934507 Z" id="Path"></path>
                            <path d="M232.256833,5.69401753 C232.256833,8.74461786 230.176949,11.2152113 226.744028,11.2152113 C223.311107,11.2152113 221.252139,8.74461786 221.252139,5.69401753 C221.252139,2.66436552 223.355555,0.17282371 226.723112,0.17282371 C230.091976,0.17282371 232.256833,2.66436552 232.256833,5.69401753 Z M223.869316,5.69401753 C223.869316,7.30572955 224.835397,8.81008138 226.744028,8.81008138 C228.652659,8.81008138 229.61874,7.30572955 229.61874,5.69401753 C229.61874,4.10325383 228.502321,2.55700534 226.744028,2.55700534 C224.856314,2.55831461 223.869316,4.10456311 223.869316,5.69401753 Z" id="Shape"></path>
                            <path d="M241.103206,11.2152113 L241.103206,5.54345142 C241.103206,4.14515049 240.372436,2.87908589 238.935734,2.87908589 C237.521255,2.87908589 236.684595,4.14515049 236.684595,5.54345142 L236.684595,11.2152113 L234.066111,11.2152113 L234.066111,0.600955172 L236.491118,0.600955172 L236.684595,1.89058664 C237.241497,0.816984809 238.465113,0.429440733 239.473027,0.429440733 C240.739782,0.429440733 242.00523,0.945293321 242.605273,2.40643923 C243.550437,0.902087394 244.772745,0.47133739 246.145391,0.47133739 C249.148216,0.47133739 250.629366,2.32002738 250.629366,5.49893622 L250.629366,11.2139021 L248.010881,11.2139021 L248.010881,5.49893622 C248.010881,4.10325383 247.433063,2.91967328 246.01597,2.91967328 C244.601491,2.91967328 243.720384,4.14384122 243.720384,5.54214215 L243.720384,11.2139021 L241.103206,11.2139021 L241.103206,11.2152113 Z" id="Path"></path>
                        </g>
                    </g>
                    <g>
                        <g transform="translate(207.0093, 0)">
                            <path d="M43.9736966,20.4927023 C43.9658529,18.8901552 42.7200138,17.7157395 41.1120577,17.6908634 C39.9041297,17.6725336 40.0243996,17.8479758 40.021785,16.5557258 C40.0178632,15.1194561 40.0126341,13.6831863 40.0257069,12.2456072 C40.0296287,11.7493937 39.8792914,11.3409013 39.552471,10.9677592 C36.4908181,7.47462544 33.4370089,3.97363605 30.3766633,0.479193013 C30.2197895,0.299822951 30.0171609,0.159731004 29.8354488,0 C21.7120025,0 13.5898635,0 5.46641717,0 C4.42843578,0.383616265 3.97611643,1.13644682 3.97873099,2.23754333 C3.99180381,7.14468927 3.98396012,12.0518352 3.98396012,16.9576719 C3.98396012,17.6856263 3.98003828,17.7288322 3.26495538,17.6790799 C1.3079552,17.5455343 -0.024164494,18.9700207 0.000332299475,20.9417821 C0.058194231,25.4928065 0.0176685092,30.0451401 0.0189757905,34.5961644 C0.0202830719,36.6648119 1.15238872,37.7947123 3.22181509,37.802568 C3.98265284,37.8051865 3.98265284,37.8051865 3.98265284,38.5881303 C3.98265284,41.4934016 3.98134556,44.3986729 3.98396012,47.3039442 C3.9852674,48.8645946 4.7421833,49.6226623 6.29523354,49.6226623 C16.770479,49.6236442 27.2470317,49.6236442 37.7222772,49.6226623 C39.2491818,49.6226623 40.0165559,48.8593576 40.0191705,47.3379852 C40.021785,44.3842709 40.0191705,41.4305566 40.0204778,38.4768423 C40.0204778,37.8064958 40.0230923,37.807805 40.7002641,37.802568 C41.0545373,37.7999494 41.4075033,37.8130421 41.7578547,37.7266303 C43.0599069,37.4045497 43.9671602,36.3597518 43.9723893,35.0177495 C43.9933058,30.1773764 43.9959203,25.3343847 43.9736966,20.4927023 Z M6.78023492,1.98354485 C13.7571955,1.98354485 20.734156,1.98354485 27.7098093,1.98354485 C28.4261995,1.98354485 28.4340432,1.99270974 28.4340432,2.71804562 C28.4353505,5.65473941 28.4327359,8.5914332 28.4353505,11.5294363 C28.4366577,12.5912547 28.7608635,12.9159538 29.8210687,12.9159538 C32.3179761,12.917263 34.8161907,12.9159538 37.3130981,12.917263 C37.911833,12.917263 37.9392859,12.9447577 37.9419004,13.5496407 C37.9458223,14.7109637 37.9443756,15.8735959 37.9419004,17.0349188 C37.9405931,17.6594409 37.9105257,17.6869356 37.2830306,17.6882448 C32.1911698,17.6895541 27.0993089,17.6882448 22.0087553,17.6882448 C16.9338892,17.6882448 11.8577157,17.6882448 6.78284949,17.6882448 C6.06384474,17.6882448 6.06123018,17.6869356 6.06123018,16.9537441 C6.0599229,12.2089477 6.0599229,7.46546055 6.06123018,2.72066416 C6.06123018,1.98878193 6.06645931,1.98354485 6.78023492,1.98354485 Z M37.2202811,47.0447086 C32.1441076,47.0460179 27.0679342,47.0447086 21.9904534,47.0447086 C16.9299673,47.0447086 11.8694812,47.0447086 6.80899511,47.0447086 C6.06123018,47.0447086 6.05861562,47.0420901 6.05861562,46.286641 C6.05730834,43.6720277 6.05730834,41.0574145 6.0599229,38.4428012 C6.0599229,37.8352997 6.08999037,37.8064958 6.68480339,37.8051865 C16.8855197,37.8038772 27.0875434,37.8038772 37.2882597,37.8051865 C37.9131402,37.8051865 37.9405931,37.8313719 37.9405931,38.4637496 C37.9432077,41.0783628 37.9421027,43.6929761 37.9405931,46.3075893 C37.9432077,47.0381623 37.9366713,47.0447086 37.2202811,47.0447086 Z" id="Shape"></path>
                            <g transform="translate(17.4019, 1.8408)" id="Rectangle">
                                <rect x="2.29558605" y="0" width="2.29689333" height="1.37997114"></rect>
                                <rect x="0" y="1.37997114" width="2.29689333" height="1.37997114"></rect>
                                <rect x="2.29558605" y="2.75994227" width="2.29689333" height="1.37997114"></rect>
                                <rect x="0" y="4.13991341" width="2.29689333" height="1.37997114"></rect>
                                <rect x="2.29558605" y="5.51988455" width="2.29689333" height="1.37997114"></rect>
                                <rect x="0" y="6.89985568" width="2.29689333" height="1.37997114"></rect>
                                <rect x="2.29558605" y="8.28113609" width="2.29689333" height="1.37997114"></rect>
                                <rect x="0" y="9.66110723" width="2.29689333" height="1.37997114"></rect>
                                <rect x="2.29558605" y="11.0410784" width="2.29689333" height="1.37997114"></rect>
                                <rect x="0" y="12.4210495" width="2.29689333" height="1.37997114"></rect>
                                <rect x="2.29558605" y="13.8010206" width="2.29689333" height="1.37997114"></rect>
                                <rect x="0" y="15.1809918" width="2.29689333" height="1.37997114"></rect>
                            </g>
                        </g>
                        <g id="Shape">
                            <path d="M43.9736966,20.4927023 C43.9658529,18.8901552 42.7200138,17.7157395 41.1120577,17.6908634 C39.9041297,17.6725336 40.0243996,17.8479758 40.021785,16.5557258 C40.0178632,15.1194561 40.0126341,13.6831863 40.0257069,12.2456072 C40.0296287,11.7493937 39.8792914,11.3409013 39.552471,10.9677592 C36.4908181,7.47462544 33.4370089,3.97363605 30.3766633,0.479193013 C30.2197895,0.299822951 30.0171609,0.159731004 29.8354488,0 C21.7120025,0 13.5898635,0 5.46641717,0 C4.42843578,0.383616265 3.97611643,1.13644682 3.97873099,2.23754333 C3.99180381,7.14468927 3.98396012,12.0518352 3.98396012,16.9576719 C3.98396012,17.6856263 3.98003828,17.7288322 3.26495538,17.6790799 C1.3079552,17.5455343 -0.024164494,18.9700207 0.000332299475,20.9417821 C0.058194231,25.4928065 0.0176685092,30.0451401 0.0189757905,34.5961644 C0.0202830719,36.6648119 1.15238872,37.7947123 3.22181509,37.802568 C3.98265284,37.8051865 3.98265284,37.8051865 3.98265284,38.5881303 C3.98265284,41.4934016 3.98134556,44.3986729 3.98396012,47.3039442 C3.9852674,48.8645946 4.7421833,49.6226623 6.29523354,49.6226623 C16.770479,49.6236442 27.2470317,49.6236442 37.7222772,49.6226623 C39.2491818,49.6226623 40.0165559,48.8593576 40.0191705,47.3379852 C40.021785,44.3842709 40.0191705,41.4305566 40.0204778,38.4768423 C40.0204778,37.8064958 40.0230923,37.807805 40.7002641,37.802568 C41.0545373,37.7999494 41.4075033,37.8130421 41.7578547,37.7266303 C43.0599069,37.4045497 43.9671602,36.3597518 43.9723893,35.0177495 C43.9933058,30.1773764 43.9972276,25.3343847 43.9736966,20.4927023 Z M6.78154221,1.98354485 C13.7585028,1.98354485 20.7354633,1.98354485 27.7111166,1.98354485 C28.4275068,1.98354485 28.4353505,1.99270974 28.4353505,2.71804562 C28.4366577,5.65473941 28.4340432,8.5914332 28.4366577,11.5294363 C28.437965,12.5912547 28.7621708,12.9159538 29.822376,12.9159538 C32.3192833,12.917263 34.817498,12.9159538 37.3144054,12.917263 C37.9131402,12.917263 37.9405931,12.9447577 37.9432077,13.5496407 C37.9471295,14.7109637 37.9456829,15.8735959 37.9432077,17.0349188 C37.9419004,17.6594409 37.911833,17.6869356 37.2843379,17.6882448 C32.1924771,17.6895541 27.1006162,17.6882448 22.0100626,17.6882448 C16.9351964,17.6882448 11.859023,17.6882448 6.78415677,17.6882448 C6.06515203,17.6882448 6.06253746,17.6869356 6.06253746,16.9537441 C6.06123018,12.2089477 6.06123018,7.46546055 6.06253746,2.72066416 C6.06123018,1.98878193 6.06645931,1.98354485 6.78154221,1.98354485 Z M37.2215884,47.0447086 C32.1454149,47.0460179 27.0692414,47.0447086 21.9917607,47.0447086 C16.9312746,47.0447086 11.8707885,47.0447086 6.81030239,47.0447086 C6.06253746,47.0447086 6.0599229,47.0420901 6.0599229,46.286641 C6.05861562,43.6720277 6.05861562,41.0574145 6.06123018,38.4428012 C6.06123018,37.8352997 6.09129765,37.8064958 6.68611067,37.8051865 C16.886827,37.8038772 27.0888507,37.8038772 37.289567,37.8051865 C37.9144475,37.8051865 37.9419004,37.8313719 37.9419004,38.4637496 C37.944515,41.0783628 37.9434099,43.6929761 37.9419004,46.3075893 C37.9434099,47.0381623 37.9366713,47.0447086 37.2215884,47.0447086 Z"></path>
                        </g>
                        <g transform="translate(7.5555, 22.1895)">
                            <path d="M0,10.5710502 L0,0.231740883 L3.63293487,0.231740883 C4.12316537,0.231740883 4.58202113,0.311606386 5.00950213,0.47002812 C5.43698313,0.628449853 5.80955831,0.852335114 6.12722768,1.1416839 C6.44358977,1.43103269 6.69458778,1.77406157 6.87629989,2.17469835 C7.05931928,2.57402586 7.15082898,3.01525003 7.15082898,3.49575231 C7.15082898,3.98672876 7.05931928,4.43188074 6.87629989,4.83120825 C6.6932805,5.23053576 6.44358977,5.57487391 6.12722768,5.8642227 C5.80955831,6.15357148 5.43698313,6.37745674 5.00950213,6.53587848 C4.58202113,6.69430021 4.12316537,6.77416571 3.63293487,6.77416571 L1.94654193,6.77416571 L1.94654193,10.5723595 L0,10.5723595 L0,10.5710502 Z M3.66169506,4.92416646 C4.17153478,4.92416646 4.5558755,4.77883743 4.81471721,4.49079791 C5.07486619,4.20275839 5.20428705,3.87020368 5.20428705,3.49444304 C5.20428705,3.31114517 5.1729123,3.13308437 5.11016279,2.96026066 C5.04741329,2.78743695 4.95198175,2.63556157 4.82125361,2.50594379 C4.69183276,2.37632601 4.52972987,2.27289364 4.33755951,2.19564668 C4.14538916,2.11839971 3.91922948,2.0791216 3.66038778,2.0791216 L1.94523465,2.0791216 L1.94523465,4.92416646 L3.66169506,4.92416646 L3.66169506,4.92416646 Z" id="Shape"></path>
                            <polygon id="Path" points="8.53523992 0.230431613 10.7981439 0.230431613 14.9513768 7.16170979 15.0664175 7.16170979 14.9513768 5.16900004 14.9513768 0.230431613 16.8835386 0.230431613 16.8835386 10.569741 14.836336 10.569741 10.4530217 3.24830018 10.3379809 3.24830018 10.4530217 5.24100992 10.4530217 10.569741 8.53523992 10.569741 8.53523992 0.230431613"></polygon>
                            <path d="M23.7180055,4.8953625 L28.7797989,4.8953625 C28.8085591,5.01188758 28.8320901,5.15067026 28.8516994,5.31432907 C28.8700013,5.47798789 28.8804595,5.64164671 28.8804595,5.80530552 C28.8804595,6.46910568 28.7797989,7.09493699 28.5784776,7.68279946 C28.3771562,8.27066193 28.0594869,8.79437014 27.6267767,9.25654263 C27.1653064,9.74751908 26.6123264,10.1285168 25.969144,10.3969173 C25.3246543,10.666627 24.5899622,10.8014819 23.7624531,10.8014819 C23.0120736,10.8014819 22.3061416,10.666627 21.6420427,10.3969173 C20.9792511,10.1272075 20.40274,9.75275616 19.9125095,9.27094461 C19.422279,8.79044233 19.0327091,8.21960037 18.7438,7.55972803 C18.4548908,6.89985568 18.3110898,6.18106616 18.3110898,5.40074093 C18.3110898,4.62172496 18.4548908,3.90162617 18.7438,3.24175383 C19.0327091,2.58188148 19.4209717,2.0123488 19.9125095,1.53053725 C20.40274,1.05003496 20.9792511,0.674274322 21.6420427,0.404564593 C22.3048344,0.134854864 23.0120736,0 23.7624531,0 C24.5991131,0 25.3455708,0.144019758 26.0044406,0.433368545 C26.6633104,0.722717331 27.2267486,1.12204484 27.6986772,1.63135108 L26.3587138,2.94585869 C26.0214352,2.5897371 25.6475528,2.31740883 25.2331446,2.13018315 C24.8200437,1.94295746 24.324584,1.84868999 23.748073,1.84868999 C23.2761444,1.84868999 22.8290542,1.93379257 22.4068023,2.1013792 C21.9832432,2.2702751 21.6132825,2.50856233 21.2956132,2.81624091 C20.9792511,3.12391948 20.7256385,3.49706158 20.5386973,3.93566721 C20.351756,4.37427283 20.2576318,4.86263074 20.2576318,5.40074093 C20.2576318,5.94016039 20.351756,6.42851829 20.5386973,6.86712392 C20.7256385,7.30572955 20.9805584,7.67887165 21.3021496,7.98655022 C21.6237408,8.2942288 21.996316,8.5338253 22.4198751,8.70141193 C22.842127,8.87030783 23.2944463,8.95410114 23.7755259,8.95410114 C24.3232768,8.95410114 24.7860544,8.87423564 25.1664732,8.71581391 C25.5455848,8.55739217 25.8697906,8.3518367 26.1390906,8.10176603 C26.3325682,7.92894232 26.4985929,7.70898487 26.6371648,7.44451222 C26.7757366,7.18003958 26.8842409,6.88414444 26.9613705,6.5568268 L23.7166982,6.5568268 L23.7166982,4.8953625 L23.7180055,4.8953625 Z" id="Path"></path>
                        </g>
                        <g transform="translate(47.5615, 0)" id="Shape">
                            <path d="M43.9736966,20.4927023 C43.9658529,18.8901552 42.7200138,17.7157395 41.1120577,17.6908634 C39.9041297,17.6725336 40.0243996,17.8479758 40.021785,16.5557258 C40.0178632,15.1194561 40.0126341,13.6831863 40.0257069,12.2456072 C40.0296287,11.7493937 39.8792914,11.3409013 39.552471,10.9677592 C36.4908181,7.47462544 33.4370089,3.97363605 30.3766633,0.479193013 C30.2197895,0.299822951 30.0171609,0.159731004 29.8354488,0 C21.7120025,0 13.5898635,0 5.46641717,0 C4.42843578,0.383616265 3.97611643,1.13644682 3.97873099,2.23754333 C3.99180381,7.14468927 3.98396012,12.0518352 3.98396012,16.9576719 C3.98396012,17.6856263 3.98003828,17.7288322 3.26495538,17.6790799 C1.3079552,17.5455343 -0.024164494,18.9700207 0.000332299475,20.9417821 C0.058194231,25.4928065 0.0176685092,30.0451401 0.0189757905,34.5961644 C0.0202830719,36.6648119 1.15238872,37.7947123 3.22181509,37.802568 C3.98265284,37.8051865 3.98265284,37.8051865 3.98265284,38.5881303 C3.98265284,41.4934016 3.98134556,44.3986729 3.98396012,47.3039442 C3.9852674,48.8645946 4.7421833,49.6226623 6.29523354,49.6226623 C16.770479,49.6236442 27.2470317,49.6236442 37.7222772,49.6226623 C39.2491818,49.6226623 40.0165559,48.8593576 40.0191705,47.3379852 C40.021785,44.3842709 40.0191705,41.4305566 40.0204778,38.4768423 C40.0204778,37.8064958 40.0230923,37.807805 40.7002641,37.802568 C41.0545373,37.7999494 41.4075033,37.8130421 41.7578547,37.7266303 C43.0612142,37.4045497 43.9671602,36.3597518 43.9723893,35.0177495 C43.9933058,30.1773764 43.9959203,25.3343847 43.9736966,20.4927023 Z M6.78023492,1.98354485 C13.7571955,1.98354485 20.734156,1.98354485 27.7098093,1.98354485 C28.4261995,1.98354485 28.4340432,1.99270974 28.4340432,2.71804562 C28.4353505,5.65473941 28.4327359,8.5914332 28.4353505,11.5294363 C28.4366577,12.5912547 28.7608635,12.9159538 29.8210687,12.9159538 C32.3179761,12.917263 34.8161907,12.9159538 37.3130981,12.917263 C37.911833,12.917263 37.9392859,12.9447577 37.9419004,13.5496407 C37.9458223,14.7109637 37.9443756,15.8735959 37.9419004,17.0349188 C37.9405931,17.6594409 37.9105257,17.6869356 37.2830306,17.6882448 C32.1911698,17.6895541 27.0993089,17.6882448 22.0087553,17.6882448 C16.9338892,17.6882448 11.8577157,17.6882448 6.78284949,17.6882448 C6.06384474,17.6882448 6.06123018,17.6869356 6.06123018,16.9537441 C6.0599229,12.2089477 6.0599229,7.46546055 6.06123018,2.72066416 C6.06123018,1.98878193 6.06645931,1.98354485 6.78023492,1.98354485 Z M37.2215884,47.0447086 C32.1454149,47.0460179 27.0692414,47.0447086 21.9917607,47.0447086 C16.9312746,47.0447086 11.8707885,47.0447086 6.81030239,47.0447086 C6.06253746,47.0447086 6.0599229,47.0420901 6.0599229,46.286641 C6.05861562,43.6720277 6.05861562,41.0574145 6.06123018,38.4428012 C6.06123018,37.8352997 6.09129765,37.8064958 6.68611067,37.8051865 C16.886827,37.8038772 27.0888507,37.8038772 37.289567,37.8051865 C37.9144475,37.8051865 37.9419004,37.8313719 37.9419004,38.4637496 C37.944515,41.0783628 37.9434099,43.6929761 37.9419004,46.3075893 C37.9434099,47.0381623 37.9366713,47.0447086 37.2215884,47.0447086 Z"></path>
                        </g>
                        <g transform="translate(62.9384, 22.3047)" id="Shape">
                            <path d="M3.87870376,0.115215806 L6.09977477,0.115215806 L9.97847853,10.4545252 L7.82930799,10.4545252 L6.97826784,7.98524095 L2.99890341,7.98524095 L2.14786326,10.4545252 L0,10.4545252 L3.87870376,0.115215806 Z M6.34423638,6.19546814 L5.42129575,3.61096812 L5.046106,2.35406841 L4.93106525,2.35406841 L4.5558755,3.61096812 L3.63293487,6.19546814 L6.34423638,6.19546814 Z"></path>
                            <path d="M12.0099937,2.42607829 C11.8465836,2.42607829 11.6897098,2.3946558 11.5406797,2.33181081 C11.3916497,2.26896583 11.2622288,2.18255397 11.1511099,2.07126598 C11.0412983,1.96128725 10.9537104,1.83297874 10.8922682,1.68895898 C10.8295187,1.54493922 10.7981439,1.38520822 10.7981439,1.21238451 C10.7981439,1.0395608 10.8295187,0.879829795 10.8922682,0.735810037 C10.9550177,0.591790279 11.0412983,0.463481767 11.1511099,0.353503043 C11.2609215,0.243524318 11.3916497,0.155803193 11.5406797,0.094267478 C11.6897098,0.0314224927 11.8452763,0 12.0099937,0 C12.3459651,0 12.6348742,0.117834348 12.875414,0.353503043 C13.1159538,0.590481008 13.2362237,0.875901983 13.2362237,1.21238451 C13.2362237,1.54886703 13.1159538,1.83559728 12.875414,2.07126598 C12.6348742,2.30824394 12.3472723,2.42607829 12.0099937,2.42607829 Z M11.0739803,10.4558344 L11.0739803,3.3805365 L12.9630018,3.3805365 L12.9630018,10.4558344 L11.0739803,10.4558344 Z"></path>
                        </g>
                        <g transform="translate(95.9636, 0)" id="Shape">
                            <path d="M43.9736966,20.4927023 C43.9658529,18.8901552 42.7200138,17.7157395 41.1120577,17.6908634 C39.9041297,17.6725336 40.0243996,17.8479758 40.021785,16.5557258 C40.0178632,15.1194561 40.0126341,13.6831863 40.0257069,12.2456072 C40.0296287,11.7493937 39.8792914,11.3409013 39.552471,10.9677592 C36.4908181,7.47462544 33.4370089,3.97363605 30.3766633,0.479193013 C30.2197895,0.299822951 30.0171609,0.159731004 29.8354488,0 C21.7120025,0 13.5898635,0 5.46641717,0 C4.42843578,0.383616265 3.97611643,1.13644682 3.97873099,2.23754333 C3.99180381,7.14468927 3.98396012,12.0518352 3.98396012,16.9576719 C3.98396012,17.6856263 3.98003828,17.7288322 3.26495538,17.6790799 C1.3079552,17.5455343 -0.024164494,18.9700207 0.000332299475,20.9417821 C0.058194231,25.4928065 0.0176685092,30.0451401 0.0189757905,34.5961644 C0.0202830719,36.6648119 1.15238872,37.7947123 3.22181509,37.802568 C3.98265284,37.8051865 3.98265284,37.8051865 3.98265284,38.5881303 C3.98265284,41.4934016 3.98134556,44.3986729 3.98396012,47.3039442 C3.9852674,48.8645946 4.7421833,49.6226623 6.29523354,49.6226623 C16.770479,49.6236442 27.2470317,49.6236442 37.7222772,49.6226623 C39.2491818,49.6226623 40.0165559,48.8593576 40.0191705,47.3379852 C40.021785,44.3842709 40.0191705,41.4305566 40.0204778,38.4768423 C40.0204778,37.8064958 40.0230923,37.807805 40.7002641,37.802568 C41.0545373,37.7999494 41.4075033,37.8130421 41.7578547,37.7266303 C43.0599069,37.4045497 43.9671602,36.3597518 43.9723893,35.0177495 C43.9933058,30.1773764 43.9959203,25.3343847 43.9736966,20.4927023 Z M6.78023492,1.98354485 C13.7571955,1.98354485 20.734156,1.98354485 27.7098093,1.98354485 C28.4261995,1.98354485 28.4340432,1.99270974 28.4340432,2.71804562 C28.4353505,5.65473941 28.4327359,8.5914332 28.4353505,11.5294363 C28.4366577,12.5912547 28.7608635,12.9159538 29.8210687,12.9159538 C32.3179761,12.917263 34.8161907,12.9159538 37.3130981,12.917263 C37.911833,12.917263 37.9392859,12.9447577 37.9419004,13.5496407 C37.9458223,14.7109637 37.9443756,15.8735959 37.9419004,17.0349188 C37.9405931,17.6594409 37.9105257,17.6869356 37.2830306,17.6882448 C32.1911698,17.6895541 27.0993089,17.6882448 22.0087553,17.6882448 C16.9338892,17.6882448 11.8577157,17.6882448 6.78284949,17.6882448 C6.06384474,17.6882448 6.06123018,17.6869356 6.06123018,16.9537441 C6.0599229,12.2089477 6.0599229,7.46546055 6.06123018,2.72066416 C6.0599229,1.98878193 6.06645931,1.98354485 6.78023492,1.98354485 Z M37.2202811,47.0447086 C32.1441076,47.0460179 27.0679342,47.0447086 21.9904534,47.0447086 C16.9299673,47.0447086 11.8694812,47.0447086 6.80899511,47.0447086 C6.06123018,47.0447086 6.05861562,47.0420901 6.05861562,46.286641 C6.05730834,43.6720277 6.05730834,41.0574145 6.0599229,38.4428012 C6.0599229,37.8352997 6.08999037,37.8064958 6.68480339,37.8051865 C16.8855197,37.8038772 27.0875434,37.8038772 37.2882597,37.8051865 C37.9131402,37.8051865 37.9405931,37.8313719 37.9405931,38.4637496 C37.9432077,41.0783628 37.9421027,43.6929761 37.9405931,46.3075893 C37.9432077,47.0381623 37.9366713,47.0447086 37.2202811,47.0447086 Z"></path>
                        </g>
                        <g transform="translate(103.8197, 22.1895)" id="Path">
                            <path d="M3.84994357,10.8014819 C3.40808247,10.8014819 2.98452332,10.7386369 2.58057338,10.6142562 C2.17662344,10.4898755 1.80666282,10.3013405 1.47069152,10.0512698 C1.13472021,9.80119917 0.841889188,9.49482987 0.590891169,9.13478047 C0.341200432,8.77342181 0.143800948,8.35314597 0,7.87133441 L1.83150117,7.14992635 C1.96615115,7.66970675 2.20146179,8.10045676 2.5374331,8.44217636 C2.8734044,8.78389597 3.31657278,8.95541041 3.86432367,8.95541041 C4.06564499,8.95541041 4.26042991,8.929225 4.44867843,8.87554491 C4.63561966,8.82317409 4.80425895,8.74592713 4.95328903,8.6451133 C5.1023191,8.54429947 5.21997442,8.41599095 5.30625499,8.2628063 C5.39253556,8.10831238 5.43567585,7.93025159 5.43567585,7.72862393 C5.43567585,7.53616116 5.40168653,7.36333745 5.33501518,7.20884353 C5.26834383,7.05565888 5.15461036,6.91163912 4.99642931,6.77547498 C4.83824827,6.64062012 4.63039054,6.51100234 4.37547067,6.38531237 C4.12055081,6.26093167 3.80680329,6.13000461 3.43161354,5.99514975 L2.79758209,5.76471813 C2.51913116,5.66914139 2.23675839,5.53821433 1.95438562,5.37455552 C1.67070556,5.2108967 1.41447842,5.01319685 1.18308962,4.78276524 C0.951700822,4.55233363 0.762145026,4.28000536 0.613114952,3.9670897 C0.464084879,3.65417404 0.389569842,3.300671 0.389569842,2.90658057 C0.389569842,2.50201598 0.468006723,2.12494607 0.627495047,1.77275229 C0.78567609,1.42186779 1.01183576,1.11418922 1.30466679,0.848407302 C1.59749781,0.583934655 1.94784921,0.377069912 2.35702827,0.227813072 C2.76620733,0.0785562317 3.21983396,0.00392781158 3.71921544,0.00392781158 C4.23820613,0.00392781158 4.68660363,0.0733191496 5.06702251,0.213411096 C5.44744138,0.353503043 5.76903259,0.531563834 6.03310342,0.747593472 C6.29717425,0.963623109 6.5115684,1.20321962 6.67497856,1.46245518 C6.83838873,1.72300001 6.95865862,1.9678336 7.03578822,2.19957449 L5.32063509,2.92098255 C5.22389627,2.63163376 5.04872057,2.3723982 4.79510799,2.14065731 C4.54018812,1.9102257 4.191144,1.79370062 3.74928291,1.79370062 C3.32572375,1.79370062 2.97537235,1.89189591 2.69692142,2.08959576 C2.41847049,2.28729561 2.27859139,2.54522191 2.27859139,2.86206537 C2.27859139,3.16974395 2.41324137,3.43290732 2.68254133,3.64893696 C2.95184128,3.8649666 3.37932229,4.07444988 3.96629161,4.27738682 L4.61601044,4.49341645 C5.02911135,4.63874548 5.40691566,4.80371357 5.74811609,4.99224852 C6.08931652,5.17947421 6.38214754,5.40335947 6.62791644,5.6639043 C6.87237805,5.92444914 7.06062656,6.22034428 7.19004742,6.55158972 C7.32077555,6.88414444 7.38483234,7.26645143 7.38483234,7.69981998 C7.38483234,8.23923943 7.27632798,8.70403047 7.06062656,9.09288382 C6.84492514,9.48304643 6.56778149,9.80250844 6.23181019,10.0538884 C5.8945316,10.3039591 5.51542001,10.492494 5.09186085,10.6168747 C4.66699441,10.7386369 4.25389351,10.8014819 3.84994357,10.8014819 Z"></path>
                            <polygon points="7.97441622 0.230431613 10.0791392 0.230431613 12.2139296 6.4547037 12.5891194 7.78361329 12.7041601 7.78361329 13.1081101 6.4547037 15.3291811 0.230431613 17.4339041 0.230431613 13.6702411 10.569741 11.6230385 10.569741"></polygon>
                            <path d="M23.1140415,4.8953625 L28.1745276,4.8953625 C28.2032878,5.01188758 28.2268189,5.15067026 28.2464281,5.31432907 C28.2660373,5.47798789 28.2764956,5.64164671 28.2764956,5.80530552 C28.2764956,6.46910568 28.1745276,7.09493699 27.9732063,7.68279946 C27.771885,8.27066193 27.4542156,8.79437014 27.0215055,9.25654263 C26.5600352,9.74751908 26.0083624,10.1285168 25.3638727,10.3969173 C24.719383,10.666627 23.9846909,10.8014819 23.1571818,10.8014819 C22.4068023,10.8014819 21.7008704,10.666627 21.0380787,10.3969173 C20.3752871,10.1272075 19.7974687,9.75275616 19.3072382,9.27094461 C18.8170077,8.79044233 18.4274379,8.21960037 18.1385287,7.55972803 C17.8509268,6.89985568 17.7058186,6.18106616 17.7058186,5.40074093 C17.7058186,4.62172496 17.8496195,3.90162617 18.1385287,3.24175383 C18.4274379,2.58188148 18.8157004,2.0123488 19.3072382,1.53053725 C19.7974687,1.05003496 20.3739798,0.674274322 21.0380787,0.404564593 C21.7008704,0.134854864 22.4068023,0 23.1571818,0 C23.9938419,0 24.7402995,0.144019758 25.3991693,0.433368545 C26.0580391,0.722717331 26.6227847,1.12204484 27.0934059,1.63135108 L25.7521353,2.94585869 C25.416164,2.5897371 25.0409742,2.31740883 24.626566,2.13018315 C24.2134651,1.94295746 23.7193128,1.84868999 23.1414944,1.84868999 C22.6708731,1.84868999 22.2237829,1.93379257 21.8002238,2.1013792 C21.3779719,2.2702751 21.006704,2.50856233 20.6903419,2.81624091 C20.3726725,3.12391948 20.1203672,3.49706158 19.933426,3.93566721 C19.7464848,4.37427283 19.6523605,4.86263074 19.6523605,5.40074093 C19.6523605,5.94016039 19.7464848,6.42851829 19.933426,6.86712392 C20.1203672,7.30572955 20.3752871,7.67887165 20.6981856,7.98655022 C21.0197768,8.2942288 21.392352,8.5338253 21.8146039,8.70141193 C22.238163,8.87030783 22.6891751,8.95410114 23.1702546,8.95410114 C23.7180055,8.95410114 24.1820904,8.87423564 24.561202,8.71581391 C24.9403136,8.55739217 25.2658266,8.3518367 25.5351266,8.10176603 C25.7272969,7.92894232 25.8933217,7.70898487 26.0318935,7.44451222 C26.1717726,7.18003958 26.2789697,6.88414444 26.3560993,6.5568268 L23.111427,6.5568268 L23.111427,4.8953625 L23.1140415,4.8953625 Z"></path>
                        </g>
                        <g transform="translate(143.3604, 0)" id="Shape">
                            <path d="M43.9736966,20.4927023 C43.9658529,18.8901552 42.7200138,17.7157395 41.1120577,17.6908634 C39.9041297,17.6725336 40.0243996,17.8479758 40.021785,16.5557258 C40.0178632,15.1194561 40.0126341,13.6831863 40.0257069,12.2456072 C40.0296287,11.7493937 39.8792914,11.3409013 39.552471,10.9677592 C36.4908181,7.47462544 33.4370089,3.97363605 30.3766633,0.479193013 C30.2197895,0.299822951 30.0171609,0.159731004 29.8354488,0 C21.7120025,0 13.5898635,0 5.46641717,0 C4.42843578,0.383616265 3.97611643,1.13644682 3.97873099,2.23754333 C3.99180381,7.14468927 3.98396012,12.0518352 3.98396012,16.9576719 C3.98396012,17.6856263 3.98003828,17.7288322 3.26495538,17.6790799 C1.3079552,17.5455343 -0.024164494,18.9700207 0.000332299475,20.9417821 C0.058194231,25.4928065 0.0176685092,30.0451401 0.0189757905,34.5961644 C0.0202830719,36.6648119 1.15238872,37.7947123 3.22181509,37.802568 C3.98265284,37.8051865 3.98265284,37.8051865 3.98265284,38.5881303 C3.98265284,41.4934016 3.98134556,44.3986729 3.98396012,47.3039442 C3.9852674,48.8645946 4.7421833,49.6226623 6.29523354,49.6226623 C16.770479,49.6236442 27.2470317,49.6236442 37.7222772,49.6226623 C39.2491818,49.6226623 40.0165559,48.8593576 40.0191705,47.3379852 C40.021785,44.3842709 40.0191705,41.4305566 40.0204778,38.4768423 C40.0204778,37.8064958 40.0230923,37.807805 40.7002641,37.802568 C41.0545373,37.7999494 41.4075033,37.8130421 41.7578547,37.7266303 C43.0599069,37.4045497 43.9671602,36.3597518 43.9723893,35.0177495 C43.9933058,30.1773764 43.9972276,25.3343847 43.9736966,20.4927023 Z M6.78154221,1.98354485 C13.7585028,1.98354485 20.7354633,1.98354485 27.7111166,1.98354485 C28.4275068,1.98354485 28.4353505,1.99270974 28.4353505,2.71804562 C28.4366577,5.65473941 28.4340432,8.5914332 28.4366577,11.5294363 C28.437965,12.5912547 28.7621708,12.9159538 29.822376,12.9159538 C32.3192833,12.917263 34.817498,12.9159538 37.3144054,12.917263 C37.9131402,12.917263 37.9405931,12.9447577 37.9432077,13.5496407 C37.9471295,14.7109637 37.9456829,15.8735959 37.9432077,17.0349188 C37.9419004,17.6594409 37.911833,17.6869356 37.2843379,17.6882448 C32.1924771,17.6895541 27.1006162,17.6882448 22.0100626,17.6882448 C16.9351964,17.6882448 11.859023,17.6882448 6.78415677,17.6882448 C6.06515203,17.6882448 6.06253746,17.6869356 6.06253746,16.9537441 C6.06123018,12.2089477 6.06123018,7.46546055 6.06253746,2.72066416 C6.06123018,1.98878193 6.06645931,1.98354485 6.78154221,1.98354485 Z M37.2215884,47.0447086 C32.1454149,47.0460179 27.0692414,47.0447086 21.9917607,47.0447086 C16.9312746,47.0447086 11.8707885,47.0447086 6.81030239,47.0447086 C6.06253746,47.0447086 6.0599229,47.0420901 6.0599229,46.286641 C6.05861562,43.6720277 6.05861562,41.0574145 6.06123018,38.4428012 C6.06123018,37.8352997 6.09129765,37.8064958 6.68611067,37.8051865 C16.886827,37.8038772 27.0888507,37.8038772 37.289567,37.8051865 C37.9144475,37.8051865 37.9419004,37.8313719 37.9419004,38.4637496 C37.9432077,41.0783628 37.9432077,43.6929761 37.9419004,46.3075893 C37.9432077,47.0381623 37.9366713,47.0447086 37.2215884,47.0447086 Z"></path>
                        </g>
                        <g transform="translate(153.5762, 22.1934)">
                            <polygon id="Path" points="1.94654193 2.07519379 1.94654193 4.47246812 6.08408739 4.47246812 6.08408739 6.32115811 1.94654193 6.32115811 1.94654193 8.71843245 6.54555771 8.71843245 6.54555771 10.5671224 0 10.5671224 0 0.227813072 6.54555771 0.227813072 6.54555771 2.07650306 1.94654193 2.07650306"></polygon>
                            <path d="M8.3339186,10.5671224 L8.3339186,0.227813072 L11.9668535,0.227813072 C12.457084,0.227813072 12.9159397,0.307678574 13.3434207,0.466100308 C13.7709017,0.624522042 14.1434769,0.848407302 14.4611463,1.13775609 C14.7788156,1.42710488 15.0285064,1.77013375 15.2115258,2.17077054 C15.3945452,2.57009805 15.4847476,3.01132221 15.4847476,3.4918245 C15.4847476,3.98280095 15.3932379,4.42795293 15.2115258,4.82728044 C15.0285064,5.22660795 14.7788156,5.5709461 14.4611463,5.86029488 C14.1434769,6.14964367 13.7709017,6.37352893 13.3434207,6.53195066 C12.9159397,6.6903724 12.457084,6.7702379 11.9668535,6.7702379 L10.2804605,6.7702379 L10.2804605,10.5684317 L8.3339186,10.5684317 L8.3339186,10.5671224 Z M11.9956137,4.92023864 C12.5041461,4.92023864 12.8897941,4.77490962 13.1486358,4.4868701 C13.4087848,4.19883058 13.5382056,3.86627587 13.5382056,3.49051523 C13.5382056,3.30721735 13.5068309,3.12915656 13.4440814,2.95633285 C13.3813319,2.78350914 13.2859003,2.63163376 13.1551722,2.50201598 C13.0257514,2.3723982 12.8649557,2.26896583 12.6714781,2.19171886 C12.4793078,2.1144719 12.2531481,2.07519379 11.9943064,2.07519379 L10.2791532,2.07519379 L10.2791532,4.92023864 L11.9956137,4.92023864 L11.9956137,4.92023864 Z" id="Shape"></path>
                            <path d="M20.0275503,10.797554 C19.5856892,10.797554 19.16213,10.7347091 18.7581801,10.6103284 C18.3542301,10.4859477 17.9842695,10.2974127 17.6482982,10.047342 C17.3123269,9.79727136 17.0181886,9.49090206 16.7684979,9.13085266 C16.5188071,8.769494 16.3214076,8.34921816 16.1776067,7.8674066 L18.0091079,7.14599854 C18.1437578,7.66577894 18.3790685,8.09652895 18.7163471,8.43824855 C19.0523184,8.77996816 19.4941795,8.9514826 20.0432376,8.9514826 C20.244559,8.9514826 20.4393439,8.92529719 20.6275924,8.8716171 C20.8145336,8.81924628 20.9831729,8.74199932 21.132203,8.64118548 C21.2812331,8.54037165 21.3988884,8.41206314 21.485169,8.25887849 C21.5714495,8.10438457 21.6158971,7.92632378 21.6158971,7.72469612 C21.6158971,7.53223335 21.5819078,7.35940964 21.5152364,7.20491572 C21.4485651,7.05173106 21.3348316,6.90771131 21.1766506,6.77154717 C21.0184695,6.63669231 20.8119191,6.50707452 20.5569992,6.38138455 C20.3020793,6.25700385 19.9870245,6.1260768 19.6118348,5.99122194 L18.9778033,5.76079032 C18.6993524,5.66521357 18.4182869,5.53428652 18.1346069,5.37062771 C17.8509268,5.20696889 17.5933924,5.00926904 17.3633109,4.77883743 C17.1332294,4.54840581 16.9423663,4.27607754 16.7933362,3.96316189 C16.6443061,3.65024623 16.5697911,3.29674319 16.5697911,2.90265276 C16.5697911,2.49808817 16.6495353,2.12101826 16.8077163,1.76882448 C16.9658973,1.41793998 17.192057,1.11026141 17.484888,0.844479491 C17.7777191,0.580006844 18.1293777,0.3731421 18.5372495,0.22388526 C18.9451213,0.0746284201 19.4000552,0 19.8994367,0 C20.4184274,0 20.8681322,0.069391338 21.2472438,0.209483284 C21.6263553,0.349575231 21.9492538,0.527636023 22.2133247,0.74366566 C22.4773955,0.959695297 22.6904824,1.1992918 22.8551998,1.45852737 C23.01861,1.7190722 23.1388799,1.96390579 23.2160095,2.19564668 L21.5008563,2.91705474 C21.4041175,2.62770595 21.2289418,2.36847039 20.974022,2.1367295 C20.7191021,1.90629789 20.370058,1.78977281 19.9295042,1.78977281 C19.505945,1.78977281 19.1555936,1.8879681 18.8771427,2.08566795 C18.5986917,2.2833678 18.4588126,2.54129409 18.4588126,2.85813756 C18.4588126,3.16581614 18.5934626,3.42897951 18.8627626,3.64500915 C19.1320625,3.86103879 19.5595435,4.07052207 20.1465129,4.273459 L20.7949244,4.48948864 C21.2080253,4.63481767 21.5858296,4.79978576 21.9270301,4.98832071 C22.2682305,5.1755464 22.5610615,5.39943166 22.8068304,5.65997649 C23.051292,5.92052133 23.2395405,6.21641647 23.3689614,6.54766191 C23.4983822,6.88021662 23.5637463,7.26252362 23.5637463,7.69589216 C23.5637463,8.23531162 23.455242,8.70010266 23.2395405,9.08895601 C23.0238391,9.47911862 22.7466955,9.79858063 22.4107242,10.0499606 C22.0734456,10.3000312 21.694334,10.4885662 21.2707748,10.6129469 C20.8446011,10.7347091 20.4301929,10.797554 20.0275503,10.797554 Z" id="Path"></path>
                        </g>
                        <g transform="translate(218.8317, 22.4199)">
                            <polygon id="Path" points="0 8.37540357 5.23435452 1.84868999 0.231388799 1.84868999 0.231388799 0 7.49856581 0 7.49856581 1.96390579 2.32173167 8.49061937 7.55608619 8.49061937 7.55608619 10.3393094 0.00130728135 10.3393094 0.00130728135 8.37540357"></polygon>
                            <polygon id="Path" points="9.17057866 0 11.1171206 0 11.1171206 10.3393094 9.17057866 10.3393094"></polygon>
                            <path d="M13.1930834,10.3406186 L13.1930834,0.00130927053 L16.8260182,0.00130927053 C17.3162487,0.00130927053 17.7751045,0.0811747727 18.2025855,0.239596507 C18.6300665,0.398018241 19.0026417,0.621903501 19.320311,0.911252288 C19.6379804,1.20060107 19.8876712,1.54362995 20.0706905,1.94426673 C20.2537099,2.34359425 20.3439123,2.78481841 20.3439123,3.2653207 C20.3439123,3.75629714 20.2524026,4.20144912 20.0706905,4.60077664 C19.8876712,5.00010415 19.6379804,5.3444423 19.320311,5.63379108 C19.0026417,5.92313987 18.6300665,6.14702513 18.2025855,6.30544686 C17.7751045,6.4638686 17.3162487,6.5437341 16.8260182,6.5437341 L15.1396253,6.5437341 L15.1396253,10.3419279 L13.1930834,10.3419279 L13.1930834,10.3406186 Z M16.8560857,4.69373484 C17.3646181,4.69373484 17.7502661,4.54840581 18.0091079,4.2603663 C18.2692568,3.97232678 18.3986777,3.63977207 18.3986777,3.26401143 C18.3986777,3.08071355 18.3673029,2.90265276 18.3045534,2.72982905 C18.2418039,2.55700534 18.1463724,2.40512996 18.0156443,2.27551218 C17.8862234,2.1458944 17.7254278,2.04246202 17.5319502,1.96521506 C17.3397798,1.8879681 17.1136201,1.84868999 16.8547784,1.84868999 L15.1396253,1.84868999 L15.1396253,4.69373484 L16.8560857,4.69373484 L16.8560857,4.69373484 Z" id="Shape"></path>
                        </g>
                    </g>
                    <g transform="translate(191.0376, 23.0733)" id="Shape">
                        <path d="M0,0 L11.85312,0 L11.85312,2.93538452 L0,2.93538452 L0,0 Z M0,5.06163986 L11.85312,5.06163986 L11.85312,7.99833366 L0,7.99833366 L0,5.06163986 Z"></path>
                    </g>
                </g>
                <g id="Group" transform="translate(3.6035, 82.742)">
                    <path d="M0,0.044515198 L2.10080113,0.044515198 C3.75189747,0.044515198 4.8643939,1.10764287 4.8643939,2.62901522 C4.8643939,4.1490783 3.75189747,5.21220597 2.10080113,5.21220597 L0,5.21220597 L0,0.044515198 Z M2.07073366,4.73955931 C3.44207179,4.73955931 4.32579398,3.86889441 4.32579398,2.62901522 C4.32579398,1.38913603 3.44076451,0.517161859 2.07073366,0.517161859 L0.545136322,0.517161859 L0.545136322,4.73955931 L2.07073366,4.73955931 Z" id="Shape"></path>
                    <path d="M10.9589395,2.62770595 C10.9589395,1.12204484 12.1080398,0 13.6715483,0 C15.2193695,0 16.3763134,1.11418922 16.3763134,2.62770595 C16.3763134,4.14122268 15.2193695,5.2554119 13.6715483,5.2554119 C12.1093471,5.2554119 10.9589395,4.13467633 10.9589395,2.62770595 Z M15.8311771,2.62770595 C15.8311771,1.39437311 14.9095438,0.487048636 13.6715483,0.487048636 C12.4257092,0.487048636 11.4975395,1.39437311 11.4975395,2.62770595 C11.4975395,3.85972952 12.4257092,4.76836326 13.6715483,4.76836326 C14.9108511,4.76836326 15.8311771,3.86103879 15.8311771,2.62770595 Z" id="Shape"></path>
                    <polygon id="Path" points="29.858306 0.044515198 28.1183145 5.21220597 27.5431107 5.21220597 26.0318935 0.805201375 24.5141398 5.21220597 23.9467797 5.21220597 22.2067883 0.044515198 22.767612 0.044515198 24.2566054 4.48817937 25.7965828 0.044515198 26.3051153 0.044515198 27.8228689 4.51043697 29.3340862 0.044515198"></polygon>
                    <polygon id="Path" points="40.4930398 0.044515198 40.4930398 5.21220597 40.043335 5.21220597 36.7267622 1.01992174 36.7267622 5.21220597 36.1816259 5.21220597 36.1816259 0.044515198 36.6313307 0.044515198 39.9557471 4.2381087 39.9557471 0.044515198"></polygon>
                    <polygon id="Path" points="47.5026824 0.044515198 48.0478187 0.044515198 48.0478187 4.73955931 50.9369105 4.73955931 50.9369105 5.21220597 47.5026824 5.21220597"></polygon>
                    <path d="M56.6118188,2.62770595 C56.6118188,1.12204484 57.7609191,0 59.3244276,0 C60.8722487,0 62.0291927,1.11418922 62.0291927,2.62770595 C62.0291927,4.14122268 60.8722487,5.2554119 59.3244276,5.2554119 C57.7622264,5.2554119 56.6118188,4.13467633 56.6118188,2.62770595 Z M61.4840564,2.62770595 C61.4840564,1.39437311 60.562423,0.487048636 59.3244276,0.487048636 C58.0785885,0.487048636 57.1504187,1.39437311 57.1504187,2.62770595 C57.1504187,3.85972952 58.0785885,4.76836326 59.3244276,4.76836326 C60.562423,4.76836326 61.4840564,3.86103879 61.4840564,2.62770595 Z" id="Shape"></path>
                    <path d="M71.7436004,3.83092556 L68.8688887,3.83092556 L68.2492373,5.2108967 L67.6818772,5.2108967 L70.0402128,0.0432059274 L70.5788127,0.0432059274 L72.9371483,5.2108967 L72.3619445,5.2108967 L71.7436004,3.83092556 Z M71.5448936,3.38839213 L70.3068982,0.612738607 L69.0689028,3.38839213 L71.5448936,3.38839213 Z" id="Shape"></path>
                    <path d="M79.1218963,0.044515198 L81.2226974,0.044515198 C82.8737938,0.044515198 83.9862902,1.10764287 83.9862902,2.62901522 C83.9862902,4.1490783 82.8737938,5.21220597 81.2226974,5.21220597 L79.1218963,5.21220597 L79.1218963,0.044515198 Z M81.19263,4.73955931 C82.5639681,4.73955931 83.4476903,3.86889441 83.4476903,2.62901522 C83.4476903,1.38913603 82.5626608,0.517161859 81.19263,0.517161859 L79.6670326,0.517161859 L79.6670326,4.73955931 L81.19263,4.73955931 Z" id="Shape"></path>
                    <path d="M101.033239,3.83092556 L98.1585273,3.83092556 L97.538876,5.2108967 L96.9715159,5.2108967 L99.3298514,0.0432059274 L99.8684513,0.0432059274 L102.226787,5.2108967 L101.651583,5.2108967 L101.033239,3.83092556 Z M100.834532,3.38839213 L99.5965368,0.612738607 L98.3585414,3.38839213 L100.834532,3.38839213 Z" id="Shape"></path>
                    <polygon id="Path" points="108.411535 0.044515198 108.956671 0.044515198 108.956671 4.73955931 111.845763 4.73955931 111.845763 5.21220597 108.411535 5.21220597"></polygon>
                    <polygon id="Path" points="118.081495 0.044515198 118.626631 0.044515198 118.626631 4.73955931 121.515723 4.73955931 121.515723 5.21220597 118.081495 5.21220597"></polygon>
                    <polygon id="Path" points="135.555925 0.517161859 135.555925 2.54784045 138.224086 2.54784045 138.224086 3.02048711 135.555925 3.02048711 135.555925 5.21351524 135.010789 5.21351524 135.010789 0.0458244685 138.548292 0.0458244685 138.548292 0.518471129 135.555925 0.518471129"></polygon>
                    <polygon id="Path" points="145.006262 0.044515198 145.551398 0.044515198 145.551398 5.21220597 145.006262 5.21220597"></polygon>
                    <polygon id="Path" points="152.559733 0.044515198 153.10487 0.044515198 153.10487 4.73955931 155.993961 4.73955931 155.993961 5.21220597 152.559733 5.21220597 152.559733 0.044515198"></polygon>
                    <polygon id="Path" points="165.878316 4.73955931 165.878316 5.21220597 162.229693 5.21220597 162.229693 0.044515198 165.767197 0.044515198 165.767197 0.517161859 162.77483 0.517161859 162.77483 2.35537768 165.442991 2.35537768 165.442991 2.82016872 162.77483 2.82016872 162.77483 4.73955931"></polygon>
                    <polygon id="Path" points="180.295014 0.517161859 180.295014 2.54784045 182.963176 2.54784045 182.963176 3.02048711 180.295014 3.02048711 180.295014 5.21351524 179.749878 5.21351524 179.749878 0.0458244685 183.287381 0.0458244685 183.287381 0.518471129 180.295014 0.518471129"></polygon>
                    <path d="M189.221131,2.62770595 C189.221131,1.12204484 190.370232,0 191.93374,0 C193.481561,0 194.638505,1.11418922 194.638505,2.62770595 C194.638505,4.14122268 193.481561,5.2554119 191.93374,5.2554119 C190.370232,5.2554119 189.221131,4.13467633 189.221131,2.62770595 Z M194.092062,2.62770595 C194.092062,1.39437311 193.170428,0.487048636 191.932433,0.487048636 C190.686594,0.487048636 189.758424,1.39437311 189.758424,2.62770595 C189.758424,3.85972952 190.686594,4.76836326 191.932433,4.76836326 C193.171736,4.76836326 194.092062,3.86103879 194.092062,2.62770595 Z" id="Shape"></path>
                    <path d="M204.713723,5.21220597 L203.534555,3.55074167 C203.401212,3.56514365 203.269177,3.57299927 203.121454,3.57299927 L201.735736,3.57299927 L201.735736,5.21220597 L201.190599,5.21220597 L201.190599,0.044515198 L203.121454,0.044515198 C204.433965,0.044515198 205.230099,0.708315356 205.230099,1.81595822 C205.230099,2.62770595 204.802618,3.19592936 204.050931,3.43945368 L205.31115,5.2108967 L204.713723,5.2108967 L204.713723,5.21220597 Z M204.683655,1.81595822 C204.683655,0.988499249 204.138519,0.517161859 203.105767,0.517161859 L201.735736,0.517161859 L201.735736,3.10820823 L203.105767,3.10820823 C204.138519,3.10820823 204.683655,2.62770595 204.683655,1.81595822 Z" id="Shape"></path>
                    <polygon id="Path" points="217.206103 0.044515198 217.206103 5.21220597 216.683191 5.21220597 216.683191 1.07752964 214.655597 4.55495217 214.398063 4.55495217 212.37047 1.09978724 212.37047 5.2108967 211.847557 5.2108967 211.847557 0.0432059274 212.297262 0.0432059274 214.537942 3.87413149 216.756399 0.0432059274 217.206103 0.0432059274"></polygon>
                    <path d="M227.451267,3.83092556 L224.576556,3.83092556 L223.958211,5.2108967 L223.390851,5.2108967 L225.749187,0.0432059274 L226.28648,0.0432059274 L228.644815,5.2108967 L228.069611,5.2108967 L227.451267,3.83092556 Z M227.25256,3.38839213 L226.014565,0.612738607 L224.77657,3.38839213 L227.25256,3.38839213 Z" id="Shape"></path>
                    <polygon id="Path" points="235.573406 0.517161859 233.760207 0.517161859 233.760207 0.044515198 237.933049 0.044515198 237.933049 0.517161859 236.11985 0.517161859 236.11985 5.21220597 235.574714 5.21220597 235.574714 0.517161859"></polygon>
                    <path d="M243.555666,4.58506539 L243.77006,4.16478955 C244.138714,4.52614822 244.794969,4.79193013 245.472141,4.79193013 C246.438222,4.79193013 246.857859,4.38605627 246.857859,3.87675003 C246.857859,2.45881005 243.681165,3.33078422 243.681165,1.41924925 C243.681165,0.658563076 244.270749,0.00130927053 245.58326,0.00130927053 C246.166307,0.00130927053 246.770271,0.171514439 247.183372,0.459553955 L246.999045,0.895541041 C246.557184,0.607501525 246.040808,0.467409579 245.58326,0.467409579 C244.639402,0.467409579 244.219765,0.887685418 244.219765,1.40484728 C244.219765,2.82278726 247.396459,1.96652433 247.396459,3.84794608 C247.396459,4.60863226 246.792495,5.25803044 245.472141,5.25803044 C244.69823,5.2554119 243.9387,4.98308363 243.555666,4.58506539 Z" id="Path"></path>
                </g>
            </g>
            <g id="Group">
                <path d="M40.2612676,591 C17.4461569,591 0,573.538836 0,550.705408 L0,40.2959008 C0,18.8055391 17.4461569,9.30122457e-15 40.2612676,9.30122457e-15 L421.396821,9.30122457e-15 C444.210624,9.30122457e-15 463,18.8042301 463,40.2959008 L463,550.704099 C463,573.537527 444.211932,591 421.396821,591 L40.2612676,591 L40.2612676,591 Z" id="Path" fill="#00937D"></path>
                <path d="M230.82839,558.763803 C120.782495,558.763803 45.6289135,467.427475 53.6803823,321.021523 C56.3642052,275.353359 68.4427163,231.02826 87.2307847,194.761557 C72.4684507,175.957327 55.0222937,146.407261 41.6018712,116.857196 C25.4976257,77.904361 21.4705834,40.2959008 32.207183,29.5500655 C46.969517,14.7750327 65.7575854,33.5792628 76.494185,44.3250982 C84.5456538,51.0417362 91.256519,59.1001309 103.333722,71.189032 C111.386499,83.2766242 123.46501,98.0529659 140.911167,120.887702 C167.752012,98.0529659 198.617284,83.2779332 230.827082,83.2779332 C264.377485,83.2779332 295.244064,98.0529659 322.084909,120.887702 C339.531066,98.0529659 350.267666,83.2779332 359.661046,71.189032 C370.397646,59.1014399 378.449115,51.0417362 386.501891,44.3250982 C397.238491,33.5792628 416.026559,14.7750327 429.446982,29.5500655 C441.525493,40.2959008 436.157847,77.904361 420.052294,116.857196 C407.97509,146.405952 389.185714,175.956018 375.765292,194.761557 C394.55336,231.026951 405.28996,275.35205 407.973783,321.021523 C417.369779,467.427475 340.874286,558.763803 230.82839,558.763803 L230.82839,558.763803 L230.82839,558.763803 Z" id="Path" fill="#FFFFFF"></path>
                <path d="M230.82839,509.065133 C206.671368,509.065133 191.909034,487.574771 187.8833,483.545574 C181.173742,479.516376 158.358632,472.799738 143.596298,451.309377 L83.2050503,453.996817 C80.5212273,453.996817 77.8374044,452.653751 77.8374044,449.966311 C77.8374044,447.280179 80.5212273,444.594048 83.2050503,444.594048 L166.410101,440.56485 C170.435835,458.026014 187.881992,464.741343 199.960503,464.741343 C210.697103,464.741343 233.510905,447.280179 217.40666,431.162081 C213.380925,427.132883 206.67006,424.445443 205.328149,416.387048 C203.986237,409.671719 209.355191,401.612015 212.037706,397.582818 C216.06344,393.55362 220.090483,389.523114 218.747263,364.003555 C217.405352,335.796555 209.353883,311.620062 197.275372,292.814523 C185.198169,272.667227 173.11835,263.265767 159.697927,265.951898 C146.277505,267.294964 142.25177,288.785326 144.935593,308.93393 C146.277505,327.738161 159.697927,349.229831 166.407485,357.289535 C173.117042,365.34793 178.485996,376.093765 179.827907,385.495226 C179.827907,392.211864 179.827907,397.584127 177.144084,402.95639 C174.460261,406.985587 169.092616,411.014785 166.407485,420.417554 L71.1239234,415.043982 C68.4401005,415.043982 65.7562775,413.700916 65.7562775,411.014785 C65.7562775,408.329962 68.4401005,405.642522 71.1239234,405.642522 L130.173259,409.671719 C128.831348,394.896686 131.515171,382.807785 135.540905,372.06195 C138.224728,365.346621 138.224728,354.600785 135.540905,343.85495 C132.857082,333.109115 122.120483,311.618753 124.804306,286.099194 C127.488129,259.23526 140.908551,243.117162 147.618108,236.401833 C147.618108,236.401833 148.96002,233.715701 148.96002,232.372635 C148.96002,231.029569 140.908551,217.597603 136.881509,209.539208 C130.171951,198.793372 120.777263,185.361406 104.673018,153.126518 C95.2783297,134.322287 93.9364183,128.948715 77.8321728,92.6820118 C71.1226155,76.5639133 65.7536617,67.1624527 59.0441044,69.8485843 C55.01837,71.1916501 55.01837,79.2500449 57.7021929,87.3097486 C60.3860159,96.7125182 68.4387925,118.20288 79.1753922,139.694551 C89.9119918,161.184912 104.674326,184.019649 115.409617,198.793372 C126.146217,213.568405 139.565332,228.343438 136.881509,231.029569 C132.855774,233.715701 118.09344,217.597603 106.014929,205.51001 C93.9364183,192.078043 67.0955732,153.126518 49.6507242,112.830617 C33.5464787,73.8777817 32.2045672,41.6415847 38.9141245,34.9262557 C45.6249898,28.2109268 56.3602815,36.2693215 71.1226155,49.7012884 C85.8849495,64.4763212 99.305372,77.9082881 143.592374,139.694551 C165.064265,170.587682 182.51173,204.166945 183.853642,206.853076 C185.195553,209.539208 185.195553,209.539208 189.221288,209.539208 C194.588933,208.196142 203.983622,200.136438 230.824467,200.136438 C257.665312,200.136438 268.400603,208.196142 273.769557,209.539208 C276.45338,209.539208 277.795292,209.539208 279.137203,206.853076 C280.479114,204.166945 297.925271,170.587682 319.398471,139.694551 C363.685473,77.9082881 375.763984,64.4763212 391.868229,49.7012884 C406.630563,36.2693215 417.367163,28.2109268 424.07672,34.9262557 C430.786277,41.6428937 429.444366,73.8790907 411.999517,112.830617 C395.895271,153.126518 369.054426,192.078043 355.634004,205.51001 C344.897404,217.597603 328.793159,233.71701 326.109336,231.029569 C322.083601,228.343438 336.845935,213.568405 347.581227,198.793372 C358.317827,184.01834 371.738249,161.184912 382.473541,139.694551 C393.210141,118.20288 402.603521,96.7125182 405.287344,87.3097486 C406.629255,79.2500449 407.971167,71.1916501 402.603521,69.8485843 C397.235875,67.1624527 390.526318,76.5639133 383.815452,92.6820118 C369.053118,128.947406 366.369296,134.320978 356.974607,153.126518 C342.212273,185.362715 332.818893,198.793372 326.108028,209.539208 C322.082294,217.597603 314.029517,231.029569 314.029517,232.372635 C312.687605,233.715701 314.029517,236.401833 315.371428,236.401833 C320.739074,243.117162 335.502716,259.23526 338.185231,286.099194 C339.527143,311.620062 330.132454,333.109115 327.448632,343.85495 C323.422897,354.600785 324.764809,365.345312 327.448632,372.06195 C331.474366,382.807785 332.816277,394.895377 332.816277,409.671719 L390.523702,405.642522 C393.207525,405.642522 395.891348,408.328653 395.891348,411.014785 C395.891348,413.702225 394.549436,415.043982 391.865613,415.043982 L295.240141,420.417554 C292.556318,411.014785 287.187364,406.985587 285.845452,402.95639 C283.161629,397.584127 281.819718,392.210555 283.161629,385.495226 C284.503541,376.092456 289.871187,365.34793 295.240141,357.289535 C301.949698,349.229831 316.712032,327.738161 318.053943,308.93393 C320.737766,288.786635 315.37012,267.296273 301.949698,265.951898 C289.871187,263.265767 277.793984,272.668536 265.715473,292.814523 C253.638269,311.620062 244.243581,335.796555 244.243581,364.003555 C242.90167,389.524423 246.927404,393.55362 249.611227,397.582818 C253.638269,401.612015 259.005915,409.671719 257.664004,416.387048 C256.322092,424.445443 248.269316,427.132883 244.243581,431.162081 C229.481247,447.27887 252.29505,464.741343 263.03165,464.741343 C275.110161,464.741343 291.214406,458.026014 295.240141,440.56485 L379.787102,444.594048 C382.470925,444.594048 385.154748,447.27887 383.812837,449.966311 C383.812837,452.653751 382.470925,453.996817 379.787102,453.996817 L319.395855,451.309377 C304.633521,472.801047 281.819718,479.517685 275.108853,483.545574 C271.08835,487.574771 256.327324,509.065133 230.82839,509.065133 L230.82839,509.065133 L230.82839,509.065133 Z" id="Path" fill="#231F20"></path>
                <path d="M230.82839,490.260903 C222.775614,490.260903 213.382233,487.574771 208.01328,480.858133 C214.722837,478.172001 224.117525,472.798429 230.82839,466.084409 C237.537948,472.799738 246.932636,478.172001 254.984105,480.858133 C248.274547,487.574771 238.879859,490.260903 230.82839,490.260903 L230.82839,490.260903 L230.82839,490.260903 Z" id="Path" fill="#FFFFFF"></path>
                <path d="M191.909034,330.424292 C191.909034,326.395095 190.567123,325.052029 190.567123,323.707654 C189.225211,322.364588 189.225211,322.364588 187.8833,323.707654 C186.541388,323.707654 181.173742,325.052029 178.488612,321.022832 C177.1467,316.993634 181.172435,314.306194 183.856257,312.963128 L183.856257,311.620062 C179.830523,304.903424 170.435835,299.531161 165.068189,303.560358 C159.700543,307.589556 158.358632,323.707654 165.068189,333.109115 C175.804789,347.885456 186.54008,350.570279 190.567123,347.885456 C194.594165,345.198016 194.594165,339.825753 191.909034,330.424292 L191.909034,330.424292 L191.909034,330.424292 Z" id="Path" fill="#231F20"></path>
                <path d="M199.961811,333.109115 C201.303722,331.766049 201.303722,321.021523 195.936076,308.932621 C193.252254,302.217292 186.541388,287.44226 171.780362,287.44226 C161.043763,287.44226 154.334205,294.158898 158.35994,296.845029 C159.701851,298.189404 162.385674,295.501964 166.411408,294.160207 C169.095231,294.160207 182.515654,290.131009 190.568431,310.276996 C197.277988,323.707654 197.277988,333.109115 199.961811,333.109115 L199.961811,333.109115 L199.961811,333.109115 Z" id="Path" fill="#231F20"></path>
                <path d="M269.746439,330.424292 C271.08835,326.395095 271.08835,325.052029 272.430261,323.707654 C272.430261,322.364588 273.772173,322.364588 275.114084,323.707654 C276.455996,323.707654 281.82495,325.052029 284.508773,321.022832 C285.850684,316.993634 281.82495,314.306194 279.141127,312.963128 L279.141127,311.620062 C283.166861,304.903424 291.219638,299.531161 297.929195,303.560358 C303.296841,307.589556 304.64006,323.707654 296.587284,333.109115 C287.192596,347.885456 276.457304,350.570279 271.08835,347.885456 C267.062616,345.198016 267.062616,339.825753 269.746439,330.424292 L269.746439,330.424292 L269.746439,330.424292 Z" id="Path" fill="#231F20"></path>
                <path d="M263.036881,333.109115 C260.353058,331.766049 261.69497,321.021523 265.720704,308.932621 C268.404527,302.217292 276.457304,287.44226 291.219638,287.44226 C300.613018,287.44226 307.323883,294.158898 304.64006,296.845029 C303.298149,298.189404 299.272414,295.501964 296.587284,294.160207 C292.561549,294.160207 280.483038,290.131009 271.08835,310.276996 C265.720704,323.707654 264.378793,333.109115 263.036881,333.109115 L263.036881,333.109115 L263.036881,333.109115 Z" id="Path" fill="#231F20"></path>
                <path d="M166.411408,435.191278 L76.4968009,435.191278 C73.81167,435.191278 71.1278471,432.505146 71.1278471,429.817706 C71.1278471,427.131574 73.81167,425.788508 76.4968009,425.788508 L166.411408,425.788508 C165.069497,428.47464 165.069497,431.162081 166.411408,433.848212 L166.411408,435.191278 L166.411408,435.191278 Z" id="Path" fill="#231F20"></path>
                <path d="M296.587284,435.191278 L386.503199,435.191278 C389.187022,435.191278 390.530241,432.505146 390.530241,429.817706 C390.530241,427.131574 389.18833,425.788508 386.503199,425.788508 L296.587284,425.788508 C296.587284,428.47464 296.587284,431.162081 296.587284,433.848212 L296.587284,435.191278 L296.587284,435.191278 Z" id="Path" fill="#231F20"></path>
            </g>
        </g>
    </g>
</svg>