<?xml version="1.0" encoding="UTF-8"?>
<svg width="600px" height="600px" viewBox="0 0 600 600" version="1.1" xmlns="http://www.w3.org/2000/svg" xmlns:xlink="http://www.w3.org/1999/xlink">
    <title>assets/icon</title>
    <g id="/assets/icon" stroke="none" stroke-width="1" fill="none" fill-rule="evenodd">
        <g id="Group" transform="translate(48, 0)">
            <path d="M251.183397,600 C220.180283,600 201.234308,572.94272 196.067682,567.86979 C187.456638,562.796859 158.175733,554.340326 139.229758,527.283046 L61.7236511,530.666648 C58.2792336,530.666648 54.8348161,528.975671 54.8348161,525.592069 C54.8348161,522.210115 58.2792336,518.828161 61.7236511,518.828161 L168.508985,513.755231 C173.675611,535.739579 196.066003,544.194464 211.56756,544.194464 C225.346909,544.194464 254.626136,522.210115 233.957952,501.916744 C228.791326,496.843813 220.178604,493.460211 218.456395,483.314349 C216.734187,474.859464 223.6247,464.711954 227.067439,459.639023 C232.234065,454.566092 237.40237,449.491513 235.678483,417.361303 C233.956274,381.847491 223.623022,351.408257 208.121464,327.731283 C192.621586,302.364981 177.11835,290.528142 159.894584,293.910096 C142.670818,295.601073 137.504192,322.658352 140.94861,348.026303 C142.670818,371.701629 159.894584,398.760556 168.505628,408.908066 C177.116672,419.053928 184.007185,432.583392 185.729394,444.420231 C185.729394,452.876764 185.729394,459.640671 182.284976,466.404579 C178.840559,471.47751 171.951724,476.550441 168.505628,488.388928 L46.2187368,481.623372 C42.7743193,481.623372 39.3299019,479.932395 39.3299019,476.550441 C39.3299019,473.170135 42.7743193,469.786533 46.2187368,469.786533 L122.002635,474.859464 C120.280426,456.257069 123.724844,441.036629 128.89147,427.507165 C132.335888,419.05228 132.335888,405.522816 128.89147,391.993352 C125.447053,378.463888 111.667704,351.406609 115.112122,319.276399 C118.556539,285.453563 135.780305,265.160191 144.391349,256.705307 C144.391349,256.705307 146.113557,253.323353 146.113557,251.632376 C146.113557,249.941399 135.780305,233.029981 130.612,222.884119 C122.000957,209.354655 109.943817,192.443238 89.2756336,151.858142 C77.2184939,128.182817 75.4962852,121.417261 54.8281019,75.7559384 C46.2170582,55.4625667 39.3265447,43.625728 30.7155011,47.0076819 C25.5488749,48.6986589 25.5488749,58.8445206 28.9932924,68.9920305 C32.4377098,80.8305174 42.7726408,107.887797 56.5519892,134.946725 C70.3313376,162.004004 89.2773122,190.753909 103.054982,209.354655 C116.83433,227.95705 134.056418,246.559445 130.612,249.941399 C125.445374,253.323353 106.499399,233.029981 90.9978423,217.811188 C75.4962852,200.899771 41.0487535,151.858142 18.66004,101.123889 C-2.00814332,52.0806128 -3.73035204,11.4938694 4.8806916,3.03898462 C13.4934138,-5.41590019 27.2710836,4.72996159 46.2170582,21.6413793 C65.1630328,40.2437741 82.3867987,57.1551918 139.224722,134.946725 C166.781741,173.842491 189.173811,216.120211 190.89602,219.502165 C192.618229,222.884119 192.618229,222.884119 197.784855,222.884119 C204.67369,221.193142 216.730829,211.045632 251.178361,211.045632 C285.625893,211.045632 299.403563,221.193142 306.294076,222.884119 C309.738494,222.884119 311.460702,222.884119 313.182911,219.502165 C314.90512,216.120211 337.295512,173.842491 364.854209,134.946725 C421.692132,57.1551918 437.19369,40.2437741 457.861873,21.6413793 C476.807848,4.72996159 490.587196,-5.41590019 499.19824,3.03898462 C507.809283,11.4955176 506.087074,52.0822609 483.698361,101.123889 C463.030178,151.858142 428.582646,200.899771 411.35888,217.811188 C397.579532,233.029981 376.911348,253.325001 373.466931,249.941399 C368.300305,246.559445 387.246279,227.95705 401.023949,209.354655 C414.803298,190.752261 432.027063,162.004004 445.804733,134.946725 C459.584082,107.887797 471.639543,80.8305174 475.08396,68.9920305 C476.806169,58.8445206 478.528378,48.6986589 471.639543,47.0076819 C464.750708,43.625728 456.139664,55.4625667 447.526942,75.7559384 C428.580967,121.415613 425.13655,128.181169 413.07941,151.858142 C394.133436,192.444886 382.077975,209.354655 373.465252,222.884119 C368.298626,233.029981 357.963695,249.941399 357.963695,251.632376 C356.241487,253.323353 357.963695,256.705307 359.685904,256.705307 C366.574739,265.160191 385.522392,285.453563 388.965131,319.276399 C390.68734,351.408257 378.6302,378.463888 375.185783,391.993352 C370.019156,405.522816 371.741365,419.050632 375.185783,427.507165 C380.352409,441.036629 382.074617,456.255421 382.074617,474.859464 L456.136307,469.786533 C459.580725,469.786533 463.025142,473.168487 463.025142,476.550441 C463.025142,479.934043 461.302933,481.623372 457.858516,481.623372 L333.849416,488.388928 C330.404998,476.550441 323.514485,471.47751 321.792276,466.404579 C318.347859,459.640671 316.62565,452.875115 318.347859,444.420231 C320.070068,432.581744 326.958902,419.053928 333.849416,408.908066 C342.46046,398.760556 361.406434,371.701629 363.128643,348.026303 C366.57306,322.660001 359.684225,295.602721 342.46046,293.910096 C326.958902,290.528142 311.459024,302.366629 295.957467,327.731283 C280.457588,351.408257 268.400448,381.847491 268.400448,417.361303 C266.67824,449.493162 271.844866,454.566092 275.289283,459.639023 C280.457588,464.711954 287.346423,474.859464 285.624214,483.314349 C283.902006,493.460211 273.567075,496.843813 268.400448,501.916744 C249.454474,522.208467 278.733701,544.194464 292.513049,544.194464 C308.014606,544.194464 328.68279,535.739579 333.849416,513.755231 L442.356959,518.828161 C445.801376,518.828161 449.245794,522.208467 447.523585,525.592069 C447.523585,528.975671 445.801376,530.666648 442.356959,530.666648 L364.850852,527.283046 C345.904877,554.341974 316.62565,562.798507 308.012928,567.86979 C302.853016,572.94272 283.90872,600 251.183397,600 L251.183397,600 L251.183397,600 Z" id="Path" fill="#231F20"></path>
            <path d="M201.234308,375.083583 C201.234308,370.010652 199.512099,368.319675 199.512099,366.62705 C197.789891,364.936073 197.789891,364.936073 196.067682,366.62705 C194.345473,366.62705 187.456638,368.319675 184.010542,363.246744 C182.288333,358.173813 187.45496,354.790211 190.899377,353.099234 L190.899377,351.408257 C185.732751,342.951724 173.675611,336.187816 166.786776,341.260747 C159.897941,346.333678 158.175733,366.62705 166.786776,378.463888 C180.566125,397.067931 194.343795,400.448237 199.512099,397.067931 C204.680404,393.684329 204.680404,386.920421 201.234308,375.083583 L201.234308,375.083583 L201.234308,375.083583 Z" id="Path" fill="#231F20"></path>
            <path d="M211.569239,378.463888 C213.291448,376.772912 213.291448,363.245096 206.402613,348.024655 C202.958195,339.56977 194.345473,320.967376 175.401177,320.967376 C161.621829,320.967376 153.010785,329.423908 158.177411,332.805862 C159.89962,334.498487 163.344037,331.114885 168.510664,329.425557 C171.955081,329.425557 189.178847,324.352626 199.513778,349.71728 C208.124822,366.62705 208.124822,378.463888 211.569239,378.463888 L211.569239,378.463888 L211.569239,378.463888 Z" id="Path" fill="#231F20"></path>
            <path d="M301.130807,380.776273 C302.853016,375.703342 302.853016,374.012365 304.575225,372.31974 C304.575225,370.628763 306.297433,370.628763 308.019642,372.31974 C309.741851,372.31974 316.632364,374.012365 320.076782,368.939434 C321.79899,363.866503 316.632364,360.482901 313.187947,358.791924 L313.187947,357.100947 C318.354573,348.644415 328.689504,341.880507 337.300548,346.953438 C344.189383,352.026368 345.91327,372.31974 335.578339,384.156579 C323.521199,402.760622 309.743529,406.140928 302.853016,402.760622 C297.68639,399.37702 297.68639,392.613112 301.130807,380.776273 L301.130807,380.776273 L301.130807,380.776273 Z" id="Path" fill="#231F20"></path>
            <path d="M292.519764,378.463888 C289.075346,376.772912 290.797555,363.245096 295.964181,348.024655 C299.408598,339.56977 309.743529,320.967376 328.689504,320.967376 C340.744965,320.967376 349.357687,329.423908 345.91327,332.805862 C344.191061,334.498487 339.024435,331.114885 335.578339,329.425557 C330.411713,329.425557 314.910156,324.352626 302.853016,349.71728 C295.964181,366.62705 294.241972,378.463888 292.519764,378.463888 L292.519764,378.463888 L292.519764,378.463888 Z" id="Path" fill="#231F20"></path>
            <path d="M168.510664,506.989675 L53.114286,506.989675 C49.66819,506.989675 46.2237725,503.607721 46.2237725,500.224119 C46.2237725,496.842165 49.66819,495.151188 53.114286,495.151188 L168.510664,495.151188 C166.788455,498.533142 166.788455,501.916744 168.510664,505.298698 L168.510664,506.989675 L168.510664,506.989675 Z" id="Path" fill="#231F20"></path>
            <path d="M335.578339,506.989675 L450.976395,506.989675 C454.420813,506.989675 456.1447,503.607721 456.1447,500.224119 C456.1447,496.842165 454.422491,495.151188 450.976395,495.151188 L335.578339,495.151188 C335.578339,498.533142 335.578339,501.916744 335.578339,505.298698 L335.578339,506.989675 L335.578339,506.989675 Z" id="Path" fill="#231F20"></path>
        </g>
    </g>
</svg>
