<?xml version="1.0" encoding="UTF-8"?>
<svg width="64px" height="64px" viewBox="0 0 64 64" version="1.1" xmlns="http://www.w3.org/2000/svg" xmlns:xlink="http://www.w3.org/1999/xlink">
    <title>measure_pressure</title>
    <g id="measure_pressure" stroke="none" stroke-width="1" fill="none" fill-rule="evenodd">
        <g id="BAR" transform="translate(19.5342, 44.625)" fill="#000000" fill-rule="nonzero">
            <path d="M3.84228516,6.41345215 L1.51330566,6.41345215 L1.50524902,4.75964355 L3.48962402,4.75964355 C3.79886882,4.75964355 4.0542806,4.70603434 4.25585938,4.59881592 C4.45743815,4.49159749 4.60611979,4.33292643 4.7019043,4.12280273 C4.7976888,3.91267904 4.84558105,3.65612793 4.84558105,3.35314941 C4.84558105,3.00508626 4.8001709,2.72542318 4.70935059,2.51416016 C4.61853027,2.30289714 4.47489421,2.14792887 4.27844238,2.04925537 C4.08199056,1.95058187 3.82543945,1.90124512 3.50878906,1.90124512 L2.2890625,1.90124512 L2.2890625,11.375 L0,11.375 L0,0 L3.50878906,0 C4.07438151,0 4.5803833,0.062113444 5.02679443,0.186340332 C5.47320557,0.31056722 5.85347493,0.502075195 6.16760254,0.760864258 C6.48173014,1.01965332 6.72145589,1.34356689 6.88677979,1.73260498 C7.05210368,2.12164307 7.13476562,2.58178711 7.13476562,3.11303711 C7.13476562,3.57820638 7.04085286,4.00929769 6.85302734,4.40631104 C6.66520182,4.80332438 6.37143962,5.12731934 5.97174072,5.3782959 C5.57204183,5.62927246 5.05232747,5.76920573 4.41259766,5.7980957 L3.84228516,6.41345215 Z M3.7611084,11.375 L0.864257812,11.375 L1.77368164,9.48156738 L3.7611084,9.48156738 C4.06555176,9.48156738 4.30965169,9.4175415 4.4934082,9.28948975 C4.67716471,9.16143799 4.81247965,8.98594157 4.89935303,8.76300049 C4.9862264,8.54005941 5.02966309,8.28531901 5.02966309,7.9987793 C5.02966309,7.67537435 4.99088542,7.3943278 4.91333008,7.15563965 C4.83577474,6.9169515 4.71081543,6.73358154 4.53845215,6.60552979 C4.36608887,6.47747803 4.1340332,6.41345215 3.84228516,6.41345215 L1.87719727,6.41345215 L1.89282227,4.75964355 L4.28637695,4.75964355 L4.82373047,5.41064453 C5.43204753,5.39436849 5.91841634,5.51157633 6.28283691,5.76226807 C6.64725749,6.0129598 6.90885417,6.34094238 7.06762695,6.74621582 C7.22639974,7.15148926 7.30578613,7.57873535 7.30578613,8.0279541 C7.30578613,8.76094564 7.16947428,9.37534587 6.89685059,9.87115479 C6.62422689,10.3669637 6.22491455,10.7415568 5.69891357,10.9949341 C5.1729126,11.2483114 4.52697754,11.375 3.7611084,11.375 Z" id="Shape"></path>
            <path d="M13.101161,2.02868652 L10.6487684,11.375 L8.234828,11.375 L11.7930555,0 L13.3001356,0 L13.101161,2.02868652 Z M15.0268202,11.375 L12.5668592,2.02868652 L12.3388319,0 L13.8697157,0 L17.4560194,11.375 L15.0268202,11.375 Z M15.1155653,7.13525391 L15.1155653,9.02880859 L9.97652721,9.02880859 L9.97652721,7.13525391 L15.1155653,7.13525391 Z" id="Shape"></path>
            <path d="M18.5398118,0 L22.1934983,0 C22.9522874,0 23.6002569,0.130208333 24.137407,0.390625 C24.6745571,0.651041667 25.0861375,1.03603109 25.3721482,1.54559326 C25.658159,2.05515544 25.8011643,2.68583171 25.8011643,3.43762207 C25.8011643,4.05171712 25.7178717,4.57625326 25.5512864,5.01123047 C25.3847011,5.44620768 25.1479457,5.80814616 24.8410203,6.0970459 C24.5340948,6.38594564 24.1666428,6.61568197 23.7386643,6.78625488 L23.0404221,7.20605469 L20.0791184,7.20605469 L20.0711839,5.30737305 L22.1308762,5.30737305 C22.442888,5.30737305 22.7019008,5.23819987 22.9079148,5.09985352 C23.1139288,4.96150716 23.2677984,4.76556396 23.3695237,4.51202393 C23.471249,4.25848389 23.5221116,3.96187337 23.5221116,3.62219238 C23.5221116,3.26387533 23.475908,2.95623779 23.3835008,2.69927979 C23.2910935,2.44232178 23.1475795,2.2450765 22.9529588,2.10754395 C22.758338,1.97001139 22.5051845,1.90124512 22.1934983,1.90124512 L20.8288743,1.90124512 L20.8288743,11.375 L18.5398118,11.375 L18.5398118,0 Z M23.7072923,11.375 L21.6186692,6.3034668 L24.0160081,6.29797363 L26.1538255,11.2653809 L26.1538255,11.375 L23.7072923,11.375 Z" id="Shape"></path>
        </g>
        <path d="M32.1645603,8.00070729 C35.1027004,8.01834794 38.0735476,8.5782237 40.9302884,9.72791332 L41.4836503,9.95890075 C44.2261038,11.137568 46.7586098,12.8292625 48.9225745,14.9824334 C56.1168119,22.1347218 58.2318293,33.3804928 53.3795866,42.9073525 C52.8782295,43.8917135 51.6741351,44.2831035 50.6901664,43.7815465 C49.7061978,43.2799895 49.3149638,42.075415 49.8163209,41.091054 C52.7674466,35.2968343 52.6259017,28.7396136 50.0032407,23.3023128 L49.8163209,22.9280689 C48.7785656,20.8905475 47.4397257,19.1070818 45.881644,17.6042749 L45.4840016,17.2317103 L45.2930423,17.0596785 L44.8941754,16.7146413 C43.7467026,15.7482218 42.4717577,14.8966358 41.077865,14.1861288 C40.6750891,13.9808224 40.2686248,13.790478 39.8591051,13.6148899 C37.4630541,12.5920754 34.875448,12.038267 32.2487003,12.0033535 L31.956888,12.0007412 L31.8262669,12.002498 C29.3304208,12.0262792 26.8685883,12.51869 24.5710094,13.437396 L23.9727063,13.6879029 C23.8362388,13.7478889 23.7001216,13.8095234 23.5643783,13.8728143 C23.3493221,13.9730851 23.1352044,14.0775132 22.9221191,14.1861288 C21.4906662,14.9157813 20.184658,15.7942183 19.0133264,16.793015 C18.7950948,16.9791015 18.581538,17.1693659 18.3727159,17.3636243 L18.070286,17.6508308 L17.5989135,18.1239658 L17.4949739,18.2318957 L17.5262822,18.2000265 C17.2975308,18.4401633 17.0741228,18.6867462 16.8563485,18.9396809 C15.9442788,19.9990076 15.1310263,21.1697487 14.4379092,22.4449749 L14.1751965,22.9416243 C11.3818974,28.4479011 11.1669786,35.1681163 14.1836633,41.091054 C14.6850203,42.075415 14.2937863,43.2799895 13.3098177,43.7815465 C12.325849,44.2831035 11.1217546,43.8917135 10.6203975,42.9073525 C5.90033304,33.6400107 7.77311335,22.7461307 14.501125,15.5756688 C14.631331,15.4372321 14.7632353,15.2998786 14.8965835,15.1643061 L15.1168563,14.9433589 L15.5218426,14.5515987 L15.8067696,14.2874021 L16.1847322,13.948679 L16.5966818,13.5971737 C18.2991316,12.1720451 20.1806845,11.0022487 22.178617,10.1071166 L22.3231212,10.0430205 C25.5127418,8.63340703 28.8629805,7.97531107 32.1645603,8.00070729 Z M32.0600304,16.0056826 L32.3819945,16.0105215 C34.4865717,16.0584687 36.5945103,16.5216075 38.5761647,17.4175932 C38.7781684,17.5085463 38.9785266,17.6038097 39.17709,17.703363 L37.5856869,19.1680691 L37.2961006,19.0452781 C35.72947,18.4068902 34.0609851,18.0580815 32.3777557,18.0115372 L32.1570341,18.0071683 L31.9124049,18.0065109 L31.6204072,18.0115877 C29.7663832,18.0630952 27.930286,18.4813191 26.2284167,19.2499079 C25.3078477,19.6671763 24.4179352,20.1921816 23.5763792,20.8265925 C23.0270972,21.2406711 22.5169219,21.6874073 22.0465191,22.1620616 C21.6129027,22.6020872 21.2033021,23.075693 20.8214802,23.5825899 L20.7885354,23.6204369 C17.1510408,28.4808704 16.9853548,35.3437928 20.8214802,40.436533 C21.1537826,40.877689 21.0656818,41.5048082 20.6247017,41.8372431 C20.1837216,42.1696779 19.5568523,42.0815421 19.2245499,41.6403861 C14.3533164,35.1734634 15.1282923,26.2089668 20.718608,20.6611986 C21.8856324,19.4971619 23.2011869,18.5449393 24.6112279,17.8117933 L25.0982989,17.5690209 L25.2264316,17.5084704 C25.3921698,17.4307876 25.5588295,17.3561631 25.7263338,17.2845862 C27.7589685,16.4160129 29.9159771,15.9962018 32.0600304,16.0056826 Z M46.2997592,24.8290433 C48.9359965,30.0925218 48.5576038,36.6192762 44.7754342,41.6403861 C44.4431318,42.0815421 43.8162625,42.1696779 43.3752824,41.8372431 C42.9343023,41.5048082 42.8462015,40.877689 43.1785039,40.436533 C46.3233935,36.2614596 46.7787194,30.8966705 44.836504,26.4208415 L46.2997592,24.8290433 Z M43.3112869,20.6937565 C43.7064003,21.0890274 43.7196528,21.7256781 43.3413308,22.1370617 L35.6878784,30.4593954 C36.2979252,31.9133438 36.0112376,33.654619 34.8278158,34.8385127 C33.7280455,35.9387215 32.1470991,36.26418 30.7626502,35.8148884 L29.1120807,37.6098048 C28.3948895,38.3896713 27.1815364,38.4402478 26.4019808,37.7227706 L26.3443446,37.6674639 C25.5953219,36.9181425 25.5953219,35.7032525 26.3443446,34.953931 L26.4019808,34.8986243 L28.1961817,33.2473966 C27.7470692,31.8623958 28.0723981,30.280819 29.1721683,29.1806102 C30.3555902,27.9967165 32.0961713,27.7099146 33.5495402,28.3202047 L41.868557,20.6637007 C42.2797766,20.2852278 42.9161736,20.2984856 43.3112869,20.6937565 Z" id="Shape" fill="#000000" fill-rule="nonzero"></path>
    </g>
</svg>