<?xml version="1.0" encoding="UTF-8"?>
<svg width="64px" height="64px" viewBox="0 0 64 64" version="1.1" xmlns="http://www.w3.org/2000/svg" xmlns:xlink="http://www.w3.org/1999/xlink">
    <title>valve_position</title>
    <g id="valve_position" stroke="none" stroke-width="1" fill="none" fill-rule="evenodd">
        <path d="M54,10 C55.1045695,10 56,10.8954305 56,12 C56,13.1045695 55.1045695,14 54,14 L43.723,14 L38.2803688,18.5364426 C37.9658675,18.7985269 37.5796764,18.9568748 37.1746043,18.9923667 L37,19 L34,19 L34,21 L40,21 C41.1045695,21 42,21.8954305 42,23 C42,24.1045695 41.1045695,25 40,25 L37,25 L37,25.763932 C37,27.0622154 37.6949108,28.2549353 38.8102622,28.8979899 L39,29 L38.9324533,29.000683 C40.5725988,30.0365767 41.9649652,31.429187 43.0005709,33.0695324 L43.1928858,33.3839329 C43.3500242,33.6492029 43.4980008,33.9205405 43.6363799,34.1975097 C44.0078453,34.6972704 44.5989629,35 45.236068,35 L48,35 C49.0543618,35 49.9181651,34.1841222 49.9945143,33.1492623 L50,33 C50,31.3431458 51.3431458,30 53,30 L54,30 C55.1045695,30 56,30.8954305 56,32 L56,48 C56,49.1045695 55.1045695,50 54,50 L53,50 C51.4023191,50 50.0963391,48.75108 50.0050927,47.1762728 L50,47 C50,45.8954305 49.1045695,45 48,45 L45.236068,45 C44.5989629,45 44.0078453,45.3027296 43.6344635,45.8020424 C43.4985221,46.0784161 43.351139,46.3487525 43.1946615,46.6130687 L43.0005709,46.9304676 C40.6980407,50.5775553 36.6319165,53 32,53 C27.3689242,53 23.3034354,50.5784346 21.000683,46.9324533 L20.8088906,46.619065 C20.6510909,46.3528415 20.5025205,46.080503 20.3636201,45.8024903 C19.9921547,45.3027296 19.4010371,45 18.763932,45 L16,45 C14.9456382,45 14.0818349,45.8158778 14.0054857,46.8507377 L14,47 C14,48.6568542 12.6568542,50 11,50 L10,50 C8.8954305,50 8,49.1045695 8,48 L8,32 C8,30.8954305 8.8954305,30 10,30 L11,30 C12.5976809,30 13.9036609,31.24892 13.9949073,32.8237272 L14.0054857,33.1492623 C14.0818349,34.1841222 14.9456382,35 16,35 L18.763932,35 C19.4010371,35 19.9921547,34.6972704 20.3655365,34.1979576 C20.5032156,33.9181057 20.6525781,33.6444329 20.8112603,33.3769387 L21.000683,33.0675467 C22.0361587,31.428063 23.428063,30.0361587 25.0675467,29.000683 L25,29 C26.2257321,28.3871339 27,27.1343422 27,25.763932 L27,25 L24,25 C22.8954305,25 22,24.1045695 22,23 C22,21.8954305 22.8954305,21 24,21 L30,21 L30,19 L27,19 C25.8954305,19 25,18.1045695 25,17 C25,15.8954305 25.8954305,15 27,15 L36.275,15 L41.7196312,10.4635574 C42.0341325,10.2014731 42.4203236,10.0431252 42.8253957,10.0076333 L43,10 L54,10 Z M32,31 C27.0294373,31 23,35.0294373 23,40 C23,44.9705627 27.0294373,49 32,49 C36.9705627,49 41,44.9705627 41,40 C41,35.0294373 36.9705627,31 32,31 Z M32,36 C34.209139,36 36,37.790861 36,40 C36,42.209139 34.209139,44 32,44 C29.790861,44 28,42.209139 28,40 C28,37.790861 29.790861,36 32,36 Z" id="Combined-Shape" fill="#000000"></path>
    </g>
</svg>